<mxfile host="65bd71144e">
    <diagram id="IlZiu2MPBp62PP9Y-6dU" name="第 3 页">
        <mxGraphModel dx="4070" dy="1737" grid="1" gridSize="10" guides="1" tooltips="1" connect="1" arrows="1" fold="1" page="1" pageScale="1" pageWidth="827" pageHeight="1169" math="0" shadow="0">
            <root>
                <mxCell id="8rYkP_rlxBz2SXgYndyW-0"/>
                <mxCell id="8rYkP_rlxBz2SXgYndyW-1" parent="8rYkP_rlxBz2SXgYndyW-0"/>
                <mxCell id="8rYkP_rlxBz2SXgYndyW-2" value="触发" style="whiteSpace=wrap;html=1;" parent="8rYkP_rlxBz2SXgYndyW-1" vertex="1">
                    <mxGeometry x="190" y="210" width="120" height="60" as="geometry"/>
                </mxCell>
                <mxCell id="8rYkP_rlxBz2SXgYndyW-3" value="判断是否能执行" style="whiteSpace=wrap;html=1;" parent="8rYkP_rlxBz2SXgYndyW-1" vertex="1">
                    <mxGeometry x="190" y="320" width="120" height="60" as="geometry"/>
                </mxCell>
                <mxCell id="8rYkP_rlxBz2SXgYndyW-4" value="是否有交互列表" style="text;html=1;align=center;verticalAlign=middle;resizable=0;points=[];autosize=1;strokeColor=none;fillColor=none;" parent="8rYkP_rlxBz2SXgYndyW-1" vertex="1">
                    <mxGeometry x="340" y="320" width="100" height="20" as="geometry"/>
                </mxCell>
                <mxCell id="8rYkP_rlxBz2SXgYndyW-5" value="玩家是不是要播放转身动画" style="text;html=1;align=center;verticalAlign=middle;resizable=0;points=[];autosize=1;strokeColor=none;fillColor=none;" parent="8rYkP_rlxBz2SXgYndyW-1" vertex="1">
                    <mxGeometry x="340" y="360" width="160" height="20" as="geometry"/>
                </mxCell>
                <mxCell id="8rYkP_rlxBz2SXgYndyW-7" value="直接触发" style="whiteSpace=wrap;html=1;" parent="8rYkP_rlxBz2SXgYndyW-1" vertex="1">
                    <mxGeometry x="180" y="500" width="120" height="60" as="geometry"/>
                </mxCell>
                <mxCell id="8rYkP_rlxBz2SXgYndyW-8" value="元素与元素" style="whiteSpace=wrap;html=1;" parent="8rYkP_rlxBz2SXgYndyW-1" vertex="1">
                    <mxGeometry x="180" y="640" width="120" height="60" as="geometry"/>
                </mxCell>
                <mxCell id="8rYkP_rlxBz2SXgYndyW-10" value="元素和人" style="whiteSpace=wrap;html=1;" parent="8rYkP_rlxBz2SXgYndyW-1" vertex="1">
                    <mxGeometry x="130" y="860" width="120" height="60" as="geometry"/>
                </mxCell>
                <mxCell id="8rYkP_rlxBz2SXgYndyW-12" value="人要播放动画" style="whiteSpace=wrap;html=1;" parent="8rYkP_rlxBz2SXgYndyW-1" vertex="1">
                    <mxGeometry x="650" y="690" width="120" height="60" as="geometry"/>
                </mxCell>
                <mxCell id="8rYkP_rlxBz2SXgYndyW-17" value="人接着播动画" style="whiteSpace=wrap;html=1;" parent="8rYkP_rlxBz2SXgYndyW-1" vertex="1">
                    <mxGeometry x="520" y="870" width="120" height="60" as="geometry"/>
                </mxCell>
                <mxCell id="_8wziHTbySWfE-9l57sK-0" value="物体前表现" style="whiteSpace=wrap;html=1;" parent="8rYkP_rlxBz2SXgYndyW-1" vertex="1">
                    <mxGeometry x="870" y="690" width="120" height="60" as="geometry"/>
                </mxCell>
                <mxCell id="_8wziHTbySWfE-9l57sK-1" value="物体后表现" style="whiteSpace=wrap;html=1;" parent="8rYkP_rlxBz2SXgYndyW-1" vertex="1">
                    <mxGeometry x="950" y="600" width="120" height="60" as="geometry"/>
                </mxCell>
                <mxCell id="_8wziHTbySWfE-9l57sK-14" style="edgeStyle=none;html=1;exitX=1;exitY=0.5;exitDx=0;exitDy=0;entryX=0;entryY=0.5;entryDx=0;entryDy=0;" parent="8rYkP_rlxBz2SXgYndyW-1" source="_8wziHTbySWfE-9l57sK-2" target="_8wziHTbySWfE-9l57sK-15" edge="1">
                    <mxGeometry relative="1" as="geometry">
                        <mxPoint x="900" y="900" as="targetPoint"/>
                    </mxGeometry>
                </mxCell>
                <mxCell id="_8wziHTbySWfE-9l57sK-2" value="动画播完" style="rounded=0;whiteSpace=wrap;html=1;" parent="8rYkP_rlxBz2SXgYndyW-1" vertex="1">
                    <mxGeometry x="720" y="870" width="120" height="60" as="geometry"/>
                </mxCell>
                <mxCell id="_8wziHTbySWfE-9l57sK-3" value="" style="edgeStyle=none;html=1;exitX=1;exitY=0.5;exitDx=0;exitDy=0;entryX=0;entryY=0.5;entryDx=0;entryDy=0;endArrow=none;" parent="8rYkP_rlxBz2SXgYndyW-1" source="8rYkP_rlxBz2SXgYndyW-17" target="_8wziHTbySWfE-9l57sK-2" edge="1">
                    <mxGeometry relative="1" as="geometry">
                        <mxPoint x="660" y="900" as="sourcePoint"/>
                        <mxPoint x="900" y="890" as="targetPoint"/>
                    </mxGeometry>
                </mxCell>
                <mxCell id="_8wziHTbySWfE-9l57sK-16" style="edgeStyle=none;html=1;entryX=0;entryY=0.5;entryDx=0;entryDy=0;" parent="8rYkP_rlxBz2SXgYndyW-1" source="_8wziHTbySWfE-9l57sK-15" target="_8wziHTbySWfE-9l57sK-17" edge="1">
                    <mxGeometry relative="1" as="geometry">
                        <mxPoint x="1130" y="900" as="targetPoint"/>
                    </mxGeometry>
                </mxCell>
                <mxCell id="_8wziHTbySWfE-9l57sK-15" value="通知服务器" style="rounded=0;whiteSpace=wrap;html=1;" parent="8rYkP_rlxBz2SXgYndyW-1" vertex="1">
                    <mxGeometry x="910" y="870" width="120" height="60" as="geometry"/>
                </mxCell>
                <mxCell id="_8wziHTbySWfE-9l57sK-17" value="服务器回调" style="rounded=0;whiteSpace=wrap;html=1;" parent="8rYkP_rlxBz2SXgYndyW-1" vertex="1">
                    <mxGeometry x="1100" y="870" width="130" height="60" as="geometry"/>
                </mxCell>
                <mxCell id="_8wziHTbySWfE-9l57sK-19" value="人接着播动画" style="whiteSpace=wrap;html=1;" parent="8rYkP_rlxBz2SXgYndyW-1" vertex="1">
                    <mxGeometry x="555" y="970" width="120" height="60" as="geometry"/>
                </mxCell>
                <mxCell id="_8wziHTbySWfE-9l57sK-20" style="edgeStyle=none;html=1;exitX=1;exitY=0.5;exitDx=0;exitDy=0;entryX=0;entryY=0.5;entryDx=0;entryDy=0;" parent="8rYkP_rlxBz2SXgYndyW-1" source="_8wziHTbySWfE-9l57sK-21" target="_8wziHTbySWfE-9l57sK-24" edge="1">
                    <mxGeometry relative="1" as="geometry">
                        <mxPoint x="935" y="1000" as="targetPoint"/>
                    </mxGeometry>
                </mxCell>
                <mxCell id="_8wziHTbySWfE-9l57sK-21" value="动画播完" style="rounded=0;whiteSpace=wrap;html=1;" parent="8rYkP_rlxBz2SXgYndyW-1" vertex="1">
                    <mxGeometry x="755" y="970" width="120" height="60" as="geometry"/>
                </mxCell>
                <mxCell id="_8wziHTbySWfE-9l57sK-22" value="" style="edgeStyle=none;html=1;exitX=1;exitY=0.5;exitDx=0;exitDy=0;entryX=0;entryY=0.5;entryDx=0;entryDy=0;endArrow=none;" parent="8rYkP_rlxBz2SXgYndyW-1" source="_8wziHTbySWfE-9l57sK-19" target="_8wziHTbySWfE-9l57sK-21" edge="1">
                    <mxGeometry relative="1" as="geometry">
                        <mxPoint x="695" y="1000" as="sourcePoint"/>
                        <mxPoint x="935" y="990" as="targetPoint"/>
                    </mxGeometry>
                </mxCell>
                <mxCell id="_8wziHTbySWfE-9l57sK-23" style="edgeStyle=none;html=1;entryX=0;entryY=0.5;entryDx=0;entryDy=0;" parent="8rYkP_rlxBz2SXgYndyW-1" source="_8wziHTbySWfE-9l57sK-24" target="_8wziHTbySWfE-9l57sK-25" edge="1">
                    <mxGeometry relative="1" as="geometry">
                        <mxPoint x="1165" y="1000" as="targetPoint"/>
                    </mxGeometry>
                </mxCell>
                <mxCell id="_8wziHTbySWfE-9l57sK-24" value="通知服务器" style="rounded=0;whiteSpace=wrap;html=1;" parent="8rYkP_rlxBz2SXgYndyW-1" vertex="1">
                    <mxGeometry x="975" y="970" width="120" height="60" as="geometry"/>
                </mxCell>
                <mxCell id="_8wziHTbySWfE-9l57sK-25" value="服务器回调" style="rounded=0;whiteSpace=wrap;html=1;" parent="8rYkP_rlxBz2SXgYndyW-1" vertex="1">
                    <mxGeometry x="1185" y="970" width="120" height="60" as="geometry"/>
                </mxCell>
                <mxCell id="_8wziHTbySWfE-9l57sK-31" style="edgeStyle=none;html=1;exitX=1;exitY=0.5;exitDx=0;exitDy=0;entryX=0;entryY=0.5;entryDx=0;entryDy=0;" parent="8rYkP_rlxBz2SXgYndyW-1" source="_8wziHTbySWfE-9l57sK-26" target="_8wziHTbySWfE-9l57sK-30" edge="1">
                    <mxGeometry relative="1" as="geometry"/>
                </mxCell>
                <mxCell id="_8wziHTbySWfE-9l57sK-26" value="走进元素" style="rounded=0;whiteSpace=wrap;html=1;" parent="8rYkP_rlxBz2SXgYndyW-1" vertex="1">
                    <mxGeometry x="200" y="970" width="120" height="60" as="geometry"/>
                </mxCell>
                <mxCell id="_8wziHTbySWfE-9l57sK-29" style="edgeStyle=none;html=1;entryX=0;entryY=0.5;entryDx=0;entryDy=0;" parent="8rYkP_rlxBz2SXgYndyW-1" source="_8wziHTbySWfE-9l57sK-27" target="8rYkP_rlxBz2SXgYndyW-17" edge="1">
                    <mxGeometry relative="1" as="geometry"/>
                </mxCell>
                <mxCell id="_8wziHTbySWfE-9l57sK-27" value="转向元素" style="rounded=0;whiteSpace=wrap;html=1;" parent="8rYkP_rlxBz2SXgYndyW-1" vertex="1">
                    <mxGeometry x="370" y="870" width="120" height="60" as="geometry"/>
                </mxCell>
                <mxCell id="_8wziHTbySWfE-9l57sK-32" style="edgeStyle=none;html=1;exitX=1;exitY=0.5;exitDx=0;exitDy=0;entryX=0;entryY=0.5;entryDx=0;entryDy=0;" parent="8rYkP_rlxBz2SXgYndyW-1" source="_8wziHTbySWfE-9l57sK-30" target="_8wziHTbySWfE-9l57sK-19" edge="1">
                    <mxGeometry relative="1" as="geometry"/>
                </mxCell>
                <mxCell id="_8wziHTbySWfE-9l57sK-30" value="转向元素" style="rounded=0;whiteSpace=wrap;html=1;" parent="8rYkP_rlxBz2SXgYndyW-1" vertex="1">
                    <mxGeometry x="380" y="970" width="120" height="60" as="geometry"/>
                </mxCell>
                <mxCell id="_8wziHTbySWfE-9l57sK-33" value="元素自身的逻辑" style="whiteSpace=wrap;html=1;" parent="8rYkP_rlxBz2SXgYndyW-1" vertex="1">
                    <mxGeometry x="630" y="1150" width="120" height="60" as="geometry"/>
                </mxCell>
                <mxCell id="_8wziHTbySWfE-9l57sK-34" value="交互流程" style="whiteSpace=wrap;html=1;" parent="8rYkP_rlxBz2SXgYndyW-1" vertex="1">
                    <mxGeometry x="30" y="970" width="120" height="60" as="geometry"/>
                </mxCell>
                <mxCell id="_8wziHTbySWfE-9l57sK-35" value="交互数据" style="whiteSpace=wrap;html=1;" parent="8rYkP_rlxBz2SXgYndyW-1" vertex="1">
                    <mxGeometry x="-110" y="1100" width="120" height="60" as="geometry"/>
                </mxCell>
                <mxCell id="_8wziHTbySWfE-9l57sK-36" value="动画信息" style="text;html=1;align=center;verticalAlign=middle;resizable=0;points=[];autosize=1;strokeColor=none;fillColor=none;" parent="8rYkP_rlxBz2SXgYndyW-1" vertex="1">
                    <mxGeometry x="15" y="1100" width="60" height="20" as="geometry"/>
                </mxCell>
                <mxCell id="_8wziHTbySWfE-9l57sK-37" value="id，。。。&lt;br&gt;" style="text;html=1;align=center;verticalAlign=middle;resizable=0;points=[];autosize=1;strokeColor=none;fillColor=none;" parent="8rYkP_rlxBz2SXgYndyW-1" vertex="1">
                    <mxGeometry x="10" y="1140" width="70" height="20" as="geometry"/>
                </mxCell>
                <mxCell id="_8wziHTbySWfE-9l57sK-38" value="判断函数" style="text;html=1;align=center;verticalAlign=middle;resizable=0;points=[];autosize=1;strokeColor=none;fillColor=none;" parent="8rYkP_rlxBz2SXgYndyW-1" vertex="1">
                    <mxGeometry x="210" y="1090" width="60" height="20" as="geometry"/>
                </mxCell>
                <mxCell id="_8wziHTbySWfE-9l57sK-43" value="初始化构造数据&lt;br&gt;交互流程类" style="whiteSpace=wrap;html=1;" parent="8rYkP_rlxBz2SXgYndyW-1" vertex="1">
                    <mxGeometry x="250" y="1310" width="120" height="60" as="geometry"/>
                </mxCell>
                <mxCell id="_8wziHTbySWfE-9l57sK-48" value="元素" style="whiteSpace=wrap;html=1;" parent="8rYkP_rlxBz2SXgYndyW-1" vertex="1">
                    <mxGeometry x="60" y="1250" width="120" height="60" as="geometry"/>
                </mxCell>
                <mxCell id="_8wziHTbySWfE-9l57sK-49" value="数据判断" style="text;html=1;align=center;verticalAlign=middle;resizable=0;points=[];autosize=1;strokeColor=none;fillColor=none;" parent="8rYkP_rlxBz2SXgYndyW-1" vertex="1">
                    <mxGeometry x="270" y="1390" width="60" height="20" as="geometry"/>
                </mxCell>
                <mxCell id="_8wziHTbySWfE-9l57sK-50" value="元素逻辑" style="whiteSpace=wrap;html=1;" parent="8rYkP_rlxBz2SXgYndyW-1" vertex="1">
                    <mxGeometry x="60" y="1360" width="120" height="60" as="geometry"/>
                </mxCell>
                <mxCell id="_8wziHTbySWfE-9l57sK-52" style="edgeStyle=none;html=1;" parent="8rYkP_rlxBz2SXgYndyW-1" source="_8wziHTbySWfE-9l57sK-51" target="_8wziHTbySWfE-9l57sK-43" edge="1">
                    <mxGeometry relative="1" as="geometry"/>
                </mxCell>
                <mxCell id="_8wziHTbySWfE-9l57sK-51" value="管理" style="whiteSpace=wrap;html=1;" parent="8rYkP_rlxBz2SXgYndyW-1" vertex="1">
                    <mxGeometry x="250" y="1140" width="120" height="60" as="geometry"/>
                </mxCell>
                <mxCell id="_8wziHTbySWfE-9l57sK-53" value="自身逻辑与表现" style="text;html=1;align=center;verticalAlign=middle;resizable=0;points=[];autosize=1;strokeColor=none;fillColor=none;" parent="8rYkP_rlxBz2SXgYndyW-1" vertex="1">
                    <mxGeometry x="80" y="1510" width="100" height="20" as="geometry"/>
                </mxCell>
                <mxCell id="PntFQ8YJOMhcDYldmKFw-0" value="&lt;div style=&quot;color: rgb(212 , 212 , 212) ; background-color: rgb(30 , 30 , 30) ; font-family: &amp;#34;consolas&amp;#34; , &amp;#34;courier new&amp;#34; , monospace ; font-size: 14px ; line-height: 19px&quot;&gt;&lt;span style=&quot;color: #9cdcfe&quot;&gt;InteractionProcess&lt;/span&gt;&lt;/div&gt;" style="whiteSpace=wrap;html=1;" parent="8rYkP_rlxBz2SXgYndyW-1" vertex="1">
                    <mxGeometry x="480" y="1520" width="120" height="60" as="geometry"/>
                </mxCell>
                <mxCell id="PntFQ8YJOMhcDYldmKFw-1" value="area" style="whiteSpace=wrap;html=1;" parent="8rYkP_rlxBz2SXgYndyW-1" vertex="1">
                    <mxGeometry x="635" y="1450" width="120" height="60" as="geometry"/>
                </mxCell>
                <mxCell id="PntFQ8YJOMhcDYldmKFw-2" value="process" style="whiteSpace=wrap;html=1;" parent="8rYkP_rlxBz2SXgYndyW-1" vertex="1">
                    <mxGeometry x="640" y="1580" width="120" height="60" as="geometry"/>
                </mxCell>
                <mxCell id="PntFQ8YJOMhcDYldmKFw-3" value="&lt;div style=&quot;color: rgb(212 , 212 , 212) ; background-color: rgb(30 , 30 , 30) ; font-family: &amp;#34;consolas&amp;#34; , &amp;#34;courier new&amp;#34; , monospace ; font-size: 14px ; line-height: 19px&quot;&gt;&lt;span style=&quot;color: #9cdcfe&quot;&gt;BaseArea&lt;/span&gt;&lt;/div&gt;" style="whiteSpace=wrap;html=1;" parent="8rYkP_rlxBz2SXgYndyW-1" vertex="1">
                    <mxGeometry x="800" y="1450" width="120" height="60" as="geometry"/>
                </mxCell>
                <mxCell id="PntFQ8YJOMhcDYldmKFw-5" value="&lt;div style=&quot;color: rgb(212 , 212 , 212) ; background-color: rgb(30 , 30 , 30) ; font-family: &amp;#34;consolas&amp;#34; , &amp;#34;courier new&amp;#34; , monospace ; font-size: 14px ; line-height: 19px&quot;&gt;&lt;span style=&quot;color: #9cdcfe&quot;&gt;BtnArea&lt;/span&gt;&lt;/div&gt;" style="whiteSpace=wrap;html=1;" parent="8rYkP_rlxBz2SXgYndyW-1" vertex="1">
                    <mxGeometry x="950" y="1410" width="120" height="60" as="geometry"/>
                </mxCell>
                <mxCell id="PntFQ8YJOMhcDYldmKFw-6" value="&lt;div style=&quot;color: rgb(212 , 212 , 212) ; background-color: rgb(30 , 30 , 30) ; font-family: &amp;#34;consolas&amp;#34; , &amp;#34;courier new&amp;#34; , monospace ; font-size: 14px ; line-height: 19px&quot;&gt;&lt;span style=&quot;color: #9cdcfe&quot;&gt;PassiveArea&lt;/span&gt;&lt;/div&gt;" style="whiteSpace=wrap;html=1;" parent="8rYkP_rlxBz2SXgYndyW-1" vertex="1">
                    <mxGeometry x="950" y="1490" width="120" height="60" as="geometry"/>
                </mxCell>
                <mxCell id="PntFQ8YJOMhcDYldmKFw-7" value="显示按钮" style="text;html=1;align=center;verticalAlign=middle;resizable=0;points=[];autosize=1;strokeColor=none;fillColor=none;" parent="8rYkP_rlxBz2SXgYndyW-1" vertex="1">
                    <mxGeometry x="1020" y="1380" width="60" height="20" as="geometry"/>
                </mxCell>
                <mxCell id="PntFQ8YJOMhcDYldmKFw-8" value="进入就触发" style="text;html=1;align=center;verticalAlign=middle;resizable=0;points=[];autosize=1;strokeColor=none;fillColor=none;" parent="8rYkP_rlxBz2SXgYndyW-1" vertex="1">
                    <mxGeometry x="995" y="1570" width="80" height="20" as="geometry"/>
                </mxCell>
                <mxCell id="PntFQ8YJOMhcDYldmKFw-10" value="提供接口和管理" style="text;html=1;align=center;verticalAlign=middle;resizable=0;points=[];autosize=1;strokeColor=none;fillColor=none;" parent="8rYkP_rlxBz2SXgYndyW-1" vertex="1">
                    <mxGeometry x="490" y="1480" width="100" height="20" as="geometry"/>
                </mxCell>
            </root>
        </mxGraphModel>
    </diagram>
    <diagram id="qzf3TZaFx5pGAV7Alt99" name="老的交互逻辑">
        <mxGraphModel dx="3097" dy="1216" grid="1" gridSize="10" guides="1" tooltips="1" connect="1" arrows="1" fold="1" page="1" pageScale="1" pageWidth="827" pageHeight="1169" math="0" shadow="0">
            <root>
                <mxCell id="0"/>
                <mxCell id="1" parent="0"/>
                <mxCell id="ZKPLTbpdLzS0un_BZ3tC-7" style="edgeStyle=none;html=1;exitX=0.5;exitY=1;exitDx=0;exitDy=0;" parent="1" source="ZKPLTbpdLzS0un_BZ3tC-3" target="ZKPLTbpdLzS0un_BZ3tC-5" edge="1">
                    <mxGeometry relative="1" as="geometry"/>
                </mxCell>
                <mxCell id="ZKPLTbpdLzS0un_BZ3tC-3" value="baseCopyMapComponent:GetCollision" style="whiteSpace=wrap;html=1;" parent="1" vertex="1">
                    <mxGeometry x="-510" y="70" width="120" height="60" as="geometry"/>
                </mxCell>
                <mxCell id="ZKPLTbpdLzS0un_BZ3tC-8" style="edgeStyle=none;html=1;exitX=1;exitY=0.5;exitDx=0;exitDy=0;entryX=0;entryY=0.5;entryDx=0;entryDy=0;" parent="1" source="ZKPLTbpdLzS0un_BZ3tC-4" target="ZKPLTbpdLzS0un_BZ3tC-3" edge="1">
                    <mxGeometry relative="1" as="geometry"/>
                </mxCell>
                <mxCell id="ZKPLTbpdLzS0un_BZ3tC-4" value="初始化" style="shape=step;perimeter=stepPerimeter;whiteSpace=wrap;html=1;fixedSize=1;" parent="1" vertex="1">
                    <mxGeometry x="-690" y="60" width="120" height="80" as="geometry"/>
                </mxCell>
                <mxCell id="ZKPLTbpdLzS0un_BZ3tC-5" value="baseCopyMapComponent:GetInteractionCollision" style="whiteSpace=wrap;html=1;" parent="1" vertex="1">
                    <mxGeometry x="-510" y="190" width="120" height="60" as="geometry"/>
                </mxCell>
                <mxCell id="ZKPLTbpdLzS0un_BZ3tC-6" value="获取交互碰撞（通过在碰撞组件上打tag来找到" style="text;html=1;align=center;verticalAlign=middle;resizable=0;points=[];autosize=1;strokeColor=none;fillColor=none;" parent="1" vertex="1">
                    <mxGeometry x="-570" y="260" width="270" height="30" as="geometry"/>
                </mxCell>
                <mxCell id="ZKPLTbpdLzS0un_BZ3tC-9" value="注册碰撞" style="text;html=1;align=center;verticalAlign=middle;resizable=0;points=[];autosize=1;strokeColor=none;fillColor=none;" parent="1" vertex="1">
                    <mxGeometry x="-430" y="130" width="70" height="30" as="geometry"/>
                </mxCell>
                <mxCell id="ZKPLTbpdLzS0un_BZ3tC-53" style="edgeStyle=none;html=1;exitX=1;exitY=0.5;exitDx=0;exitDy=0;entryX=0;entryY=0.5;entryDx=0;entryDy=0;" parent="1" source="ZKPLTbpdLzS0un_BZ3tC-10" target="ZKPLTbpdLzS0un_BZ3tC-52" edge="1">
                    <mxGeometry relative="1" as="geometry"/>
                </mxCell>
                <mxCell id="ZKPLTbpdLzS0un_BZ3tC-10" value="玩家进入触发区域" style="shape=step;perimeter=stepPerimeter;whiteSpace=wrap;html=1;fixedSize=1;" parent="1" vertex="1">
                    <mxGeometry x="360" y="60" width="120" height="80" as="geometry"/>
                </mxCell>
                <mxCell id="ZKPLTbpdLzS0un_BZ3tC-14" style="edgeStyle=none;html=1;exitX=1;exitY=0.5;exitDx=0;exitDy=0;entryX=0;entryY=0.5;entryDx=0;entryDy=0;" parent="1" source="ZKPLTbpdLzS0un_BZ3tC-12" target="ZKPLTbpdLzS0un_BZ3tC-13" edge="1">
                    <mxGeometry relative="1" as="geometry"/>
                </mxCell>
                <mxCell id="ZKPLTbpdLzS0un_BZ3tC-12" value="外部循环" style="shape=step;perimeter=stepPerimeter;whiteSpace=wrap;html=1;fixedSize=1;" parent="1" vertex="1">
                    <mxGeometry x="-250" y="60" width="120" height="80" as="geometry"/>
                </mxCell>
                <mxCell id="ZKPLTbpdLzS0un_BZ3tC-16" style="edgeStyle=none;html=1;exitX=0.5;exitY=1;exitDx=0;exitDy=0;entryX=0;entryY=0.5;entryDx=0;entryDy=0;" parent="1" source="ZKPLTbpdLzS0un_BZ3tC-13" target="ZKPLTbpdLzS0un_BZ3tC-15" edge="1">
                    <mxGeometry relative="1" as="geometry"/>
                </mxCell>
                <mxCell id="ZKPLTbpdLzS0un_BZ3tC-13" value="&lt;div style=&quot;color: rgb(212, 212, 212); background-color: rgb(30, 30, 30); font-family: Consolas, &amp;quot;Courier New&amp;quot;, monospace; font-size: 14px; line-height: 19px;&quot;&gt;&lt;span style=&quot;color: #4ec9b0;&quot;&gt;LevelElement&lt;/span&gt;:&lt;span style=&quot;color: #dcdcaa;&quot;&gt;TickMapComponent&lt;/span&gt;&lt;/div&gt;" style="whiteSpace=wrap;html=1;" parent="1" vertex="1">
                    <mxGeometry x="-60" y="70" width="120" height="60" as="geometry"/>
                </mxCell>
                <mxCell id="ZKPLTbpdLzS0un_BZ3tC-22" value="Y" style="edgeStyle=none;html=1;exitX=1;exitY=0.5;exitDx=0;exitDy=0;" parent="1" source="ZKPLTbpdLzS0un_BZ3tC-15" target="ZKPLTbpdLzS0un_BZ3tC-21" edge="1">
                    <mxGeometry relative="1" as="geometry"/>
                </mxCell>
                <mxCell id="ZKPLTbpdLzS0un_BZ3tC-15" value="&lt;div style=&quot;color: rgb(212, 212, 212); background-color: rgb(30, 30, 30); font-family: Consolas, &amp;quot;Courier New&amp;quot;, monospace; font-size: 14px; line-height: 19px;&quot;&gt;&lt;div style=&quot;line-height: 19px;&quot;&gt;&lt;span style=&quot;color: #569cd6;&quot;&gt;self&lt;/span&gt;.&lt;span style=&quot;color: #4ec9b0;&quot;&gt;bEnterArea&lt;/span&gt;&lt;/div&gt;&lt;/div&gt;" style="rhombus;whiteSpace=wrap;html=1;direction=south;" parent="1" vertex="1">
                    <mxGeometry x="-40" y="190" width="80" height="80" as="geometry"/>
                </mxCell>
                <mxCell id="ZKPLTbpdLzS0un_BZ3tC-41" style="edgeStyle=none;html=1;exitX=0.5;exitY=1;exitDx=0;exitDy=0;entryX=0.5;entryY=0;entryDx=0;entryDy=0;" parent="1" source="ZKPLTbpdLzS0un_BZ3tC-19" target="ZKPLTbpdLzS0un_BZ3tC-43" edge="1">
                    <mxGeometry relative="1" as="geometry">
                        <mxPoint x="-0.04761904761903679" y="680" as="targetPoint"/>
                    </mxGeometry>
                </mxCell>
                <mxCell id="ZKPLTbpdLzS0un_BZ3tC-19" value="&lt;div style=&quot;color: rgb(212, 212, 212); background-color: rgb(30, 30, 30); font-family: Consolas, &amp;quot;Courier New&amp;quot;, monospace; font-size: 14px; line-height: 19px;&quot;&gt;not&amp;nbsp;&lt;span style=&quot;color: #569cd6;&quot;&gt;self&lt;/span&gt;:&lt;span style=&quot;color: #dcdcaa;&quot;&gt;IsPassive&lt;/span&gt;()&lt;/div&gt;" style="rhombus;whiteSpace=wrap;html=1;" parent="1" vertex="1">
                    <mxGeometry x="-40" y="475" width="80" height="90" as="geometry"/>
                </mxCell>
                <mxCell id="ZKPLTbpdLzS0un_BZ3tC-23" value="Y" style="edgeStyle=none;html=1;exitX=0.5;exitY=1;exitDx=0;exitDy=0;entryX=0.5;entryY=0;entryDx=0;entryDy=0;" parent="1" source="ZKPLTbpdLzS0un_BZ3tC-21" target="ZKPLTbpdLzS0un_BZ3tC-19" edge="1">
                    <mxGeometry relative="1" as="geometry"/>
                </mxCell>
                <mxCell id="ZKPLTbpdLzS0un_BZ3tC-24" style="edgeStyle=none;html=1;exitX=1;exitY=0.5;exitDx=0;exitDy=0;entryX=0.5;entryY=0;entryDx=0;entryDy=0;" parent="1" source="ZKPLTbpdLzS0un_BZ3tC-21" target="ZKPLTbpdLzS0un_BZ3tC-28" edge="1">
                    <mxGeometry relative="1" as="geometry">
                        <mxPoint x="240" y="370" as="targetPoint"/>
                    </mxGeometry>
                </mxCell>
                <mxCell id="ZKPLTbpdLzS0un_BZ3tC-27" value="N" style="edgeLabel;html=1;align=center;verticalAlign=middle;resizable=0;points=[];" parent="ZKPLTbpdLzS0un_BZ3tC-24" vertex="1" connectable="0">
                    <mxGeometry x="0.1995" relative="1" as="geometry">
                        <mxPoint as="offset"/>
                    </mxGeometry>
                </mxCell>
                <mxCell id="ZKPLTbpdLzS0un_BZ3tC-21" value="&lt;div style=&quot;color: rgb(212, 212, 212); background-color: rgb(30, 30, 30); font-family: Consolas, &amp;quot;Courier New&amp;quot;, monospace; font-size: 14px; line-height: 19px;&quot;&gt;&lt;span style=&quot;color: #569cd6;&quot;&gt;self&lt;/span&gt;.&lt;span style=&quot;color: #4ec9b0;&quot;&gt;bEnterInteractionArea&lt;/span&gt;&lt;/div&gt;" style="rhombus;whiteSpace=wrap;html=1;" parent="1" vertex="1">
                    <mxGeometry x="-40" y="330" width="80" height="80" as="geometry"/>
                </mxCell>
                <mxCell id="ZKPLTbpdLzS0un_BZ3tC-25" value="是否进入区域" style="text;html=1;align=center;verticalAlign=middle;resizable=0;points=[];autosize=1;strokeColor=none;fillColor=none;" parent="1" vertex="1">
                    <mxGeometry x="27" y="240" width="100" height="30" as="geometry"/>
                </mxCell>
                <mxCell id="ZKPLTbpdLzS0un_BZ3tC-26" value="是否进入触发区域" style="text;html=1;align=center;verticalAlign=middle;resizable=0;points=[];autosize=1;strokeColor=none;fillColor=none;" parent="1" vertex="1">
                    <mxGeometry x="-10" y="385" width="120" height="30" as="geometry"/>
                </mxCell>
                <mxCell id="ZKPLTbpdLzS0un_BZ3tC-31" value="N" style="edgeStyle=none;html=1;exitX=1;exitY=0.5;exitDx=0;exitDy=0;entryX=0.5;entryY=0;entryDx=0;entryDy=0;" parent="1" source="ZKPLTbpdLzS0un_BZ3tC-28" target="ZKPLTbpdLzS0un_BZ3tC-29" edge="1">
                    <mxGeometry relative="1" as="geometry">
                        <mxPoint x="391.44000000000005" y="409.57142857142856" as="targetPoint"/>
                    </mxGeometry>
                </mxCell>
                <mxCell id="ZKPLTbpdLzS0un_BZ3tC-32" style="edgeStyle=none;html=1;exitX=0.5;exitY=1;exitDx=0;exitDy=0;entryX=0.365;entryY=0.066;entryDx=0;entryDy=0;entryPerimeter=0;" parent="1" source="ZKPLTbpdLzS0un_BZ3tC-28" target="ZKPLTbpdLzS0un_BZ3tC-30" edge="1">
                    <mxGeometry relative="1" as="geometry"/>
                </mxCell>
                <mxCell id="ZKPLTbpdLzS0un_BZ3tC-34" value="Y" style="edgeLabel;html=1;align=center;verticalAlign=middle;resizable=0;points=[];" parent="ZKPLTbpdLzS0un_BZ3tC-32" vertex="1" connectable="0">
                    <mxGeometry x="-0.2964" y="1" relative="1" as="geometry">
                        <mxPoint as="offset"/>
                    </mxGeometry>
                </mxCell>
                <mxCell id="ZKPLTbpdLzS0un_BZ3tC-28" value="&lt;div style=&quot;color: rgb(212, 212, 212); background-color: rgb(30, 30, 30); font-family: Consolas, &amp;quot;Courier New&amp;quot;, monospace; font-size: 14px; line-height: 19px;&quot;&gt;&lt;span style=&quot;color: #569cd6;&quot;&gt;self&lt;/span&gt;:&lt;span style=&quot;color: #dcdcaa;&quot;&gt;IsPassive&lt;/span&gt;()&lt;/div&gt;" style="rhombus;whiteSpace=wrap;html=1;" parent="1" vertex="1">
                    <mxGeometry x="171.44000000000005" y="370" width="80" height="80" as="geometry"/>
                </mxCell>
                <mxCell id="ZKPLTbpdLzS0un_BZ3tC-29" value="&lt;div style=&quot;color: rgb(212, 212, 212); background-color: rgb(30, 30, 30); font-family: Consolas, &amp;quot;Courier New&amp;quot;, monospace; font-size: 14px; line-height: 19px;&quot;&gt;&lt;div style=&quot;line-height: 19px;&quot;&gt;&lt;span style=&quot;color: #569cd6;&quot;&gt;self&lt;/span&gt;:&lt;span style=&quot;color: #dcdcaa;&quot;&gt;OnBeginOverLap&lt;/span&gt;&lt;/div&gt;&lt;/div&gt;" style="whiteSpace=wrap;html=1;" parent="1" vertex="1">
                    <mxGeometry x="351.44000000000005" y="565" width="120" height="60" as="geometry"/>
                </mxCell>
                <mxCell id="ZKPLTbpdLzS0un_BZ3tC-38" value="Y" style="edgeStyle=none;html=1;exitX=0.5;exitY=1;exitDx=0;exitDy=0;" parent="1" source="ZKPLTbpdLzS0un_BZ3tC-30" target="ZKPLTbpdLzS0un_BZ3tC-29" edge="1">
                    <mxGeometry relative="1" as="geometry"/>
                </mxCell>
                <mxCell id="ZKPLTbpdLzS0un_BZ3tC-30" value="&lt;div style=&quot;color: rgb(212, 212, 212); background-color: rgb(30, 30, 30); font-family: Consolas, &amp;quot;Courier New&amp;quot;, monospace; font-size: 14px; line-height: 19px;&quot;&gt;&lt;span style=&quot;color: #569cd6;&quot;&gt;self&lt;/span&gt;:&lt;span style=&quot;color: #dcdcaa;&quot;&gt;IsPassiveRepeatTrigger&lt;/span&gt;()&lt;/div&gt;" style="rhombus;whiteSpace=wrap;html=1;" parent="1" vertex="1">
                    <mxGeometry x="186.44000000000005" y="490" width="80" height="80" as="geometry"/>
                </mxCell>
                <mxCell id="ZKPLTbpdLzS0un_BZ3tC-35" value="是否是被动触发区域" style="text;html=1;align=center;verticalAlign=middle;resizable=0;points=[];autosize=1;strokeColor=none;fillColor=none;" parent="1" vertex="1">
                    <mxGeometry x="186.44000000000005" y="355" width="130" height="30" as="geometry"/>
                </mxCell>
                <mxCell id="ZKPLTbpdLzS0un_BZ3tC-40" value="被动区域是否设置了重复触发" style="text;html=1;align=center;verticalAlign=middle;resizable=0;points=[];autosize=1;strokeColor=none;fillColor=none;" parent="1" vertex="1">
                    <mxGeometry x="161.44000000000005" y="485" width="180" height="30" as="geometry"/>
                </mxCell>
                <mxCell id="ZKPLTbpdLzS0un_BZ3tC-42" value="主动触发区域" style="text;html=1;align=center;verticalAlign=middle;resizable=0;points=[];autosize=1;strokeColor=none;fillColor=none;" parent="1" vertex="1">
                    <mxGeometry x="10" y="610" width="100" height="30" as="geometry"/>
                </mxCell>
                <mxCell id="ZKPLTbpdLzS0un_BZ3tC-46" style="edgeStyle=none;html=1;exitX=0.5;exitY=1;exitDx=0;exitDy=0;entryX=0.5;entryY=0;entryDx=0;entryDy=0;" parent="1" source="ZKPLTbpdLzS0un_BZ3tC-43" target="ZKPLTbpdLzS0un_BZ3tC-44" edge="1">
                    <mxGeometry relative="1" as="geometry"/>
                </mxCell>
                <mxCell id="ZKPLTbpdLzS0un_BZ3tC-49" value="Y" style="edgeLabel;html=1;align=center;verticalAlign=middle;resizable=0;points=[];" parent="ZKPLTbpdLzS0un_BZ3tC-46" vertex="1" connectable="0">
                    <mxGeometry x="-0.2056" relative="1" as="geometry">
                        <mxPoint as="offset"/>
                    </mxGeometry>
                </mxCell>
                <mxCell id="ZKPLTbpdLzS0un_BZ3tC-47" style="edgeStyle=none;html=1;exitX=1;exitY=0.5;exitDx=0;exitDy=0;entryX=0.5;entryY=0;entryDx=0;entryDy=0;" parent="1" source="ZKPLTbpdLzS0un_BZ3tC-43" target="ZKPLTbpdLzS0un_BZ3tC-45" edge="1">
                    <mxGeometry relative="1" as="geometry"/>
                </mxCell>
                <mxCell id="ZKPLTbpdLzS0un_BZ3tC-48" value="N" style="edgeLabel;html=1;align=center;verticalAlign=middle;resizable=0;points=[];" parent="ZKPLTbpdLzS0un_BZ3tC-47" vertex="1" connectable="0">
                    <mxGeometry x="0.1074" y="3" relative="1" as="geometry">
                        <mxPoint y="-1" as="offset"/>
                    </mxGeometry>
                </mxCell>
                <mxCell id="ZKPLTbpdLzS0un_BZ3tC-43" value="&lt;div style=&quot;color: rgb(212, 212, 212); background-color: rgb(30, 30, 30); font-family: Consolas, &amp;quot;Courier New&amp;quot;, monospace; font-size: 14px; line-height: 19px;&quot;&gt;&lt;span style=&quot;color: #4ec9b0;&quot;&gt;playerActor&lt;/span&gt;:&lt;span style=&quot;color: #dcdcaa;&quot;&gt;GetInteractor&lt;/span&gt;()&lt;/div&gt;&lt;div style=&quot;color: rgb(212, 212, 212); background-color: rgb(30, 30, 30); font-family: Consolas, &amp;quot;Courier New&amp;quot;, monospace; font-size: 14px; line-height: 19px;&quot;&gt;&lt;div style=&quot;line-height: 19px;&quot;&gt;&lt;span style=&quot;color: #569cd6;&quot;&gt;self&lt;/span&gt;:&lt;span style=&quot;color: #dcdcaa;&quot;&gt;GetActor&lt;/span&gt;():&lt;span style=&quot;color: #dcdcaa;&quot;&gt;IsShowBtn&lt;/span&gt;()&lt;/div&gt;&lt;div style=&quot;line-height: 19px;&quot;&gt;&lt;div style=&quot;line-height: 19px;&quot;&gt;&lt;span style=&quot;color: #4ec9b0;&quot;&gt;playerActor&lt;/span&gt;:&lt;span style=&quot;color: #dcdcaa;&quot;&gt;CanInteractWithActiveElement&lt;/span&gt;()&lt;/div&gt;&lt;/div&gt;&lt;/div&gt;" style="rhombus;whiteSpace=wrap;html=1;" parent="1" vertex="1">
                    <mxGeometry x="-40" y="660" width="80" height="80" as="geometry"/>
                </mxCell>
                <mxCell id="ZKPLTbpdLzS0un_BZ3tC-44" value="&lt;div style=&quot;color: rgb(212, 212, 212); background-color: rgb(30, 30, 30); font-family: Consolas, &amp;quot;Courier New&amp;quot;, monospace; font-size: 14px; line-height: 19px;&quot;&gt;&lt;span style=&quot;color: #569cd6;&quot;&gt;self&lt;/span&gt;:&lt;span style=&quot;color: #dcdcaa;&quot;&gt;ShowInteractionAreaDisplay&lt;/span&gt;()&lt;/div&gt;" style="whiteSpace=wrap;html=1;" parent="1" vertex="1">
                    <mxGeometry x="-60" y="860" width="120" height="60" as="geometry"/>
                </mxCell>
                <mxCell id="ZKPLTbpdLzS0un_BZ3tC-45" value="&#10;&lt;div style=&quot;color: rgb(212, 212, 212); background-color: rgb(30, 30, 30); font-family: Consolas, &amp;quot;Courier New&amp;quot;, monospace; font-weight: normal; font-size: 14px; line-height: 19px;&quot;&gt;&lt;div&gt;&lt;span style=&quot;color: #569cd6;&quot;&gt;self&lt;/span&gt;&lt;span style=&quot;color: #d4d4d4;&quot;&gt;:&lt;/span&gt;&lt;span style=&quot;color: #dcdcaa;&quot;&gt;HideInteractionAreaDisplay&lt;/span&gt;&lt;span style=&quot;color: #d4d4d4;&quot;&gt;();&lt;/span&gt;&lt;/div&gt;&lt;/div&gt;&#10;&#10;" style="whiteSpace=wrap;html=1;" parent="1" vertex="1">
                    <mxGeometry x="140" y="800" width="120" height="60" as="geometry"/>
                </mxCell>
                <mxCell id="ZKPLTbpdLzS0un_BZ3tC-50" value="元素可以显示按钮，玩家当前状体可以交互（主要是因为翻滚）" style="text;html=1;align=center;verticalAlign=middle;resizable=0;points=[];autosize=1;strokeColor=none;fillColor=none;" parent="1" vertex="1">
                    <mxGeometry x="-520" y="680" width="360" height="30" as="geometry"/>
                </mxCell>
                <mxCell id="ZKPLTbpdLzS0un_BZ3tC-51" value="判断一系列条件显示按钮" style="text;html=1;align=center;verticalAlign=middle;resizable=0;points=[];autosize=1;strokeColor=none;fillColor=none;" parent="1" vertex="1">
                    <mxGeometry x="-110" y="950" width="160" height="30" as="geometry"/>
                </mxCell>
                <mxCell id="ZKPLTbpdLzS0un_BZ3tC-60" style="edgeStyle=none;html=1;exitX=0.5;exitY=1;exitDx=0;exitDy=0;entryX=0.547;entryY=0.02;entryDx=0;entryDy=0;entryPerimeter=0;" parent="1" source="ZKPLTbpdLzS0un_BZ3tC-52" target="ZKPLTbpdLzS0un_BZ3tC-58" edge="1">
                    <mxGeometry relative="1" as="geometry"/>
                </mxCell>
                <mxCell id="ZKPLTbpdLzS0un_BZ3tC-52" value="&lt;div style=&quot;color: rgb(212, 212, 212); background-color: rgb(30, 30, 30); font-family: Consolas, &amp;quot;Courier New&amp;quot;, monospace; font-size: 14px; line-height: 19px;&quot;&gt;&lt;span style=&quot;color: #9cdcfe;&quot;&gt;baseCopyMapComponent&lt;/span&gt;.&lt;span style=&quot;color: #4ec9b0;&quot;&gt;OnBeginOverLap&lt;/span&gt;&lt;/div&gt;" style="whiteSpace=wrap;html=1;" parent="1" vertex="1">
                    <mxGeometry x="590" y="70" width="120" height="60" as="geometry"/>
                </mxCell>
                <mxCell id="ZKPLTbpdLzS0un_BZ3tC-57" style="edgeStyle=none;html=1;exitX=1;exitY=0.5;exitDx=0;exitDy=0;entryX=0;entryY=0.5;entryDx=0;entryDy=0;" parent="1" source="ZKPLTbpdLzS0un_BZ3tC-55" target="ZKPLTbpdLzS0un_BZ3tC-56" edge="1">
                    <mxGeometry relative="1" as="geometry"/>
                </mxCell>
                <mxCell id="ZKPLTbpdLzS0un_BZ3tC-55" value="玩家离开触发区域" style="shape=step;perimeter=stepPerimeter;whiteSpace=wrap;html=1;fixedSize=1;" parent="1" vertex="1">
                    <mxGeometry x="1140" y="60" width="120" height="80" as="geometry"/>
                </mxCell>
                <mxCell id="ZKPLTbpdLzS0un_BZ3tC-215" style="edgeStyle=none;html=1;exitX=0.5;exitY=1;exitDx=0;exitDy=0;" parent="1" source="ZKPLTbpdLzS0un_BZ3tC-56" target="ZKPLTbpdLzS0un_BZ3tC-59" edge="1">
                    <mxGeometry relative="1" as="geometry"/>
                </mxCell>
                <mxCell id="ZKPLTbpdLzS0un_BZ3tC-56" value="&lt;div style=&quot;color: rgb(212, 212, 212); background-color: rgb(30, 30, 30); font-family: Consolas, &amp;quot;Courier New&amp;quot;, monospace; font-size: 14px; line-height: 19px;&quot;&gt;&lt;span style=&quot;color: #9cdcfe;&quot;&gt;baseCopyMapComponent&lt;/span&gt;.&lt;span style=&quot;color: #4ec9b0;&quot;&gt;OnEndOverLap&lt;/span&gt;&lt;/div&gt;" style="whiteSpace=wrap;html=1;" parent="1" vertex="1">
                    <mxGeometry x="1380" y="70" width="120" height="60" as="geometry"/>
                </mxCell>
                <mxCell id="ZKPLTbpdLzS0un_BZ3tC-64" style="edgeStyle=none;html=1;exitX=0.5;exitY=1;exitDx=0;exitDy=0;" parent="1" source="ZKPLTbpdLzS0un_BZ3tC-58" target="ZKPLTbpdLzS0un_BZ3tC-62" edge="1">
                    <mxGeometry relative="1" as="geometry"/>
                </mxCell>
                <mxCell id="ZKPLTbpdLzS0un_BZ3tC-58" value="&lt;div style=&quot;color: rgb(212, 212, 212); background-color: rgb(30, 30, 30); font-family: Consolas, &amp;quot;Courier New&amp;quot;, monospace; font-size: 14px; line-height: 19px;&quot;&gt;&lt;span style=&quot;color: #569cd6;&quot;&gt;self&lt;/span&gt;:&lt;span style=&quot;color: #dcdcaa;&quot;&gt;BeginOverLapEvent&lt;/span&gt;&lt;/div&gt;" style="whiteSpace=wrap;html=1;" parent="1" vertex="1">
                    <mxGeometry x="590" y="175" width="120" height="60" as="geometry"/>
                </mxCell>
                <mxCell id="ZKPLTbpdLzS0un_BZ3tC-98" style="edgeStyle=none;html=1;exitX=0.75;exitY=1;exitDx=0;exitDy=0;" parent="1" source="ZKPLTbpdLzS0un_BZ3tC-59" target="ZKPLTbpdLzS0un_BZ3tC-218" edge="1">
                    <mxGeometry relative="1" as="geometry">
                        <mxPoint x="1440" y="320" as="targetPoint"/>
                    </mxGeometry>
                </mxCell>
                <mxCell id="ZKPLTbpdLzS0un_BZ3tC-59" value="&lt;div style=&quot;color: rgb(212, 212, 212); background-color: rgb(30, 30, 30); font-family: Consolas, &amp;quot;Courier New&amp;quot;, monospace; font-size: 14px; line-height: 19px;&quot;&gt;&lt;span style=&quot;color: #569cd6;&quot;&gt;self&lt;/span&gt;:&lt;span style=&quot;color: #dcdcaa;&quot;&gt;EndOverLapEvent&lt;/span&gt;&lt;/div&gt;" style="whiteSpace=wrap;html=1;" parent="1" vertex="1">
                    <mxGeometry x="1380" y="180" width="120" height="60" as="geometry"/>
                </mxCell>
                <mxCell id="ZKPLTbpdLzS0un_BZ3tC-61" value="为什么多一次，是为了重写 （重写上一个函数 会有问题）" style="text;html=1;align=center;verticalAlign=middle;resizable=0;points=[];autosize=1;strokeColor=none;fillColor=none;" parent="1" vertex="1">
                    <mxGeometry x="750" y="190" width="330" height="30" as="geometry"/>
                </mxCell>
                <mxCell id="ZKPLTbpdLzS0un_BZ3tC-68" style="edgeStyle=none;html=1;exitX=0.5;exitY=1;exitDx=0;exitDy=0;" parent="1" source="ZKPLTbpdLzS0un_BZ3tC-62" target="ZKPLTbpdLzS0un_BZ3tC-66" edge="1">
                    <mxGeometry relative="1" as="geometry"/>
                </mxCell>
                <mxCell id="ZKPLTbpdLzS0un_BZ3tC-62" value="&lt;div style=&quot;color: rgb(212, 212, 212); background-color: rgb(30, 30, 30); font-family: Consolas, &amp;quot;Courier New&amp;quot;, monospace; font-size: 14px; line-height: 19px;&quot;&gt;&lt;span style=&quot;color: #4ec9b0;&quot;&gt;LevelElement&lt;/span&gt;:&lt;span style=&quot;color: #dcdcaa;&quot;&gt;OnBeginOverLap&lt;/span&gt;&lt;/div&gt;" style="whiteSpace=wrap;html=1;" parent="1" vertex="1">
                    <mxGeometry x="590" y="290" width="120" height="60" as="geometry"/>
                </mxCell>
                <mxCell id="ZKPLTbpdLzS0un_BZ3tC-70" style="edgeStyle=none;html=1;exitX=0.5;exitY=1;exitDx=0;exitDy=0;entryX=0.5;entryY=0;entryDx=0;entryDy=0;" parent="1" source="ZKPLTbpdLzS0un_BZ3tC-66" target="ZKPLTbpdLzS0un_BZ3tC-72" edge="1">
                    <mxGeometry relative="1" as="geometry">
                        <mxPoint x="660" y="580" as="targetPoint"/>
                    </mxGeometry>
                </mxCell>
                <mxCell id="ZKPLTbpdLzS0un_BZ3tC-71" value="Y" style="edgeLabel;html=1;align=center;verticalAlign=middle;resizable=0;points=[];" parent="ZKPLTbpdLzS0un_BZ3tC-70" vertex="1" connectable="0">
                    <mxGeometry x="-0.3456" y="-2" relative="1" as="geometry">
                        <mxPoint as="offset"/>
                    </mxGeometry>
                </mxCell>
                <mxCell id="ZKPLTbpdLzS0un_BZ3tC-66" value="&lt;div style=&quot;color: rgb(212, 212, 212); background-color: rgb(30, 30, 30); font-family: Consolas, &amp;quot;Courier New&amp;quot;, monospace; font-size: 14px; line-height: 19px;&quot;&gt;&lt;span style=&quot;color: #569cd6;&quot;&gt;self&lt;/span&gt;:&lt;span style=&quot;color: #dcdcaa;&quot;&gt;IsCanOverLap&lt;/span&gt;&lt;/div&gt;" style="rhombus;whiteSpace=wrap;html=1;" parent="1" vertex="1">
                    <mxGeometry x="610" y="430" width="80" height="80" as="geometry"/>
                </mxCell>
                <mxCell id="ZKPLTbpdLzS0un_BZ3tC-67" value="&lt;div style=&quot;color: rgb(212, 212, 212); background-color: rgb(30, 30, 30); font-family: Consolas, &amp;quot;Courier New&amp;quot;, monospace; font-size: 14px; line-height: 19px;&quot;&gt;&amp;nbsp;&lt;span style=&quot;color: #569cd6;&quot;&gt;self&lt;/span&gt;.&lt;span style=&quot;color: #4ec9b0;&quot;&gt;bEnterArea = true&lt;/span&gt;&lt;/div&gt;&lt;div style=&quot;background-color: rgb(30, 30, 30); font-family: Consolas, &amp;quot;Courier New&amp;quot;, monospace; font-size: 14px; line-height: 19px;&quot;&gt;&lt;font color=&quot;#4ec9b0&quot;&gt;进入了触发区域&lt;/font&gt;&lt;/div&gt;" style="text;html=1;align=center;verticalAlign=middle;resizable=0;points=[];autosize=1;strokeColor=none;fillColor=none;" parent="1" vertex="1">
                    <mxGeometry x="730" y="335" width="200" height="50" as="geometry"/>
                </mxCell>
                <mxCell id="ZKPLTbpdLzS0un_BZ3tC-69" value="检测是否有交互列表，&lt;br&gt;如果需要进入交互状态（NeedEnterInteractState）还要判断是否在闲置状态" style="text;html=1;align=center;verticalAlign=middle;resizable=0;points=[];autosize=1;strokeColor=none;fillColor=none;" parent="1" vertex="1">
                    <mxGeometry x="720" y="470" width="420" height="40" as="geometry"/>
                </mxCell>
                <mxCell id="ZKPLTbpdLzS0un_BZ3tC-75" style="edgeStyle=none;html=1;exitX=0.5;exitY=1;exitDx=0;exitDy=0;entryX=0.452;entryY=0.024;entryDx=0;entryDy=0;entryPerimeter=0;" parent="1" source="ZKPLTbpdLzS0un_BZ3tC-72" target="ZKPLTbpdLzS0un_BZ3tC-73" edge="1">
                    <mxGeometry relative="1" as="geometry"/>
                </mxCell>
                <mxCell id="ZKPLTbpdLzS0un_BZ3tC-88" style="edgeStyle=none;html=1;exitX=0.5;exitY=1;exitDx=0;exitDy=0;entryX=0.578;entryY=0.05;entryDx=0;entryDy=0;entryPerimeter=0;" parent="1" source="ZKPLTbpdLzS0un_BZ3tC-72" target="ZKPLTbpdLzS0un_BZ3tC-74" edge="1">
                    <mxGeometry relative="1" as="geometry"/>
                </mxCell>
                <mxCell id="ZKPLTbpdLzS0un_BZ3tC-72" value="&lt;div style=&quot;color: rgb(212, 212, 212); background-color: rgb(30, 30, 30); font-family: Consolas, &amp;quot;Courier New&amp;quot;, monospace; font-size: 14px; line-height: 19px;&quot;&gt;&lt;span style=&quot;color: #569cd6;&quot;&gt;self&lt;/span&gt;:&lt;span style=&quot;color: #dcdcaa;&quot;&gt;OnEnterInteractiveArea&lt;/span&gt;&lt;/div&gt;" style="whiteSpace=wrap;html=1;" parent="1" vertex="1">
                    <mxGeometry x="590" y="590" width="120" height="60" as="geometry"/>
                </mxCell>
                <mxCell id="ZKPLTbpdLzS0un_BZ3tC-77" style="edgeStyle=none;html=1;exitX=0.5;exitY=1;exitDx=0;exitDy=0;entryX=0.5;entryY=0;entryDx=0;entryDy=0;" parent="1" source="ZKPLTbpdLzS0un_BZ3tC-73" target="ZKPLTbpdLzS0un_BZ3tC-76" edge="1">
                    <mxGeometry relative="1" as="geometry"/>
                </mxCell>
                <mxCell id="ZKPLTbpdLzS0un_BZ3tC-82" value="Y" style="edgeLabel;html=1;align=center;verticalAlign=middle;resizable=0;points=[];" parent="ZKPLTbpdLzS0un_BZ3tC-77" vertex="1" connectable="0">
                    <mxGeometry x="-0.4562" y="1" relative="1" as="geometry">
                        <mxPoint as="offset"/>
                    </mxGeometry>
                </mxCell>
                <mxCell id="ZKPLTbpdLzS0un_BZ3tC-79" style="edgeStyle=none;html=1;exitX=1;exitY=0.5;exitDx=0;exitDy=0;entryX=0.5;entryY=0;entryDx=0;entryDy=0;" parent="1" source="ZKPLTbpdLzS0un_BZ3tC-73" target="ZKPLTbpdLzS0un_BZ3tC-78" edge="1">
                    <mxGeometry relative="1" as="geometry"/>
                </mxCell>
                <mxCell id="ZKPLTbpdLzS0un_BZ3tC-81" value="N" style="edgeLabel;html=1;align=center;verticalAlign=middle;resizable=0;points=[];" parent="ZKPLTbpdLzS0un_BZ3tC-79" vertex="1" connectable="0">
                    <mxGeometry x="0.1534" y="2" relative="1" as="geometry">
                        <mxPoint as="offset"/>
                    </mxGeometry>
                </mxCell>
                <mxCell id="ZKPLTbpdLzS0un_BZ3tC-73" value="&lt;div style=&quot;color: rgb(212, 212, 212); background-color: rgb(30, 30, 30); font-family: Consolas, &amp;quot;Courier New&amp;quot;, monospace; font-size: 14px; line-height: 19px;&quot;&gt;&lt;span style=&quot;color: #569cd6;&quot;&gt;self&lt;/span&gt;:&lt;span style=&quot;color: #dcdcaa;&quot;&gt;IsLocalEventUnit&lt;/span&gt;()&lt;/div&gt;" style="rhombus;whiteSpace=wrap;html=1;" parent="1" vertex="1">
                    <mxGeometry x="501" y="710" width="80" height="80" as="geometry"/>
                </mxCell>
                <mxCell id="ZKPLTbpdLzS0un_BZ3tC-89" style="edgeStyle=none;html=1;exitX=0.5;exitY=1;exitDx=0;exitDy=0;entryX=0.548;entryY=0.027;entryDx=0;entryDy=0;entryPerimeter=0;" parent="1" source="ZKPLTbpdLzS0un_BZ3tC-74" target="ZKPLTbpdLzS0un_BZ3tC-90" edge="1">
                    <mxGeometry relative="1" as="geometry">
                        <mxPoint x="915.1999999999998" y="860" as="targetPoint"/>
                    </mxGeometry>
                </mxCell>
                <mxCell id="ZKPLTbpdLzS0un_BZ3tC-94" value="Y" style="edgeLabel;html=1;align=center;verticalAlign=middle;resizable=0;points=[];" parent="ZKPLTbpdLzS0un_BZ3tC-89" vertex="1" connectable="0">
                    <mxGeometry x="-0.2347" y="1" relative="1" as="geometry">
                        <mxPoint as="offset"/>
                    </mxGeometry>
                </mxCell>
                <mxCell id="ZKPLTbpdLzS0un_BZ3tC-93" style="edgeStyle=none;html=1;exitX=1;exitY=0.5;exitDx=0;exitDy=0;entryX=0.5;entryY=0;entryDx=0;entryDy=0;" parent="1" source="ZKPLTbpdLzS0un_BZ3tC-74" target="ZKPLTbpdLzS0un_BZ3tC-92" edge="1">
                    <mxGeometry relative="1" as="geometry"/>
                </mxCell>
                <mxCell id="ZKPLTbpdLzS0un_BZ3tC-95" value="N" style="edgeLabel;html=1;align=center;verticalAlign=middle;resizable=0;points=[];" parent="ZKPLTbpdLzS0un_BZ3tC-93" vertex="1" connectable="0">
                    <mxGeometry x="-0.2265" y="-1" relative="1" as="geometry">
                        <mxPoint as="offset"/>
                    </mxGeometry>
                </mxCell>
                <mxCell id="ZKPLTbpdLzS0un_BZ3tC-74" value="&lt;div style=&quot;color: rgb(212, 212, 212); background-color: rgb(30, 30, 30); font-family: Consolas, &amp;quot;Courier New&amp;quot;, monospace; font-size: 14px; line-height: 19px;&quot;&gt;not &lt;span style=&quot;color: #569cd6;&quot;&gt;self&lt;/span&gt;:&lt;span style=&quot;color: #dcdcaa;&quot;&gt;IsPassive&lt;/span&gt;()&lt;/div&gt;" style="rhombus;whiteSpace=wrap;html=1;" parent="1" vertex="1">
                    <mxGeometry x="840" y="690" width="80" height="80" as="geometry"/>
                </mxCell>
                <mxCell id="ZKPLTbpdLzS0un_BZ3tC-84" style="edgeStyle=none;html=1;exitX=0.5;exitY=1;exitDx=0;exitDy=0;entryX=0.5;entryY=0;entryDx=0;entryDy=0;" parent="1" source="ZKPLTbpdLzS0un_BZ3tC-76" target="ZKPLTbpdLzS0un_BZ3tC-83" edge="1">
                    <mxGeometry relative="1" as="geometry"/>
                </mxCell>
                <mxCell id="ZKPLTbpdLzS0un_BZ3tC-76" value="&lt;div style=&quot;color: rgb(212, 212, 212); background-color: rgb(30, 30, 30); font-family: Consolas, &amp;quot;Courier New&amp;quot;, monospace; font-size: 14px; line-height: 19px;&quot;&gt;&lt;span style=&quot;color: #569cd6;&quot;&gt;self&lt;/span&gt;:&lt;span style=&quot;color: #dcdcaa;&quot;&gt;OnCharacterBeginOverlap&lt;/span&gt;()&lt;/div&gt;" style="whiteSpace=wrap;html=1;" parent="1" vertex="1">
                    <mxGeometry x="481" y="870" width="120" height="60" as="geometry"/>
                </mxCell>
                <mxCell id="ZKPLTbpdLzS0un_BZ3tC-78" value="&lt;div style=&quot;color: rgb(212, 212, 212); background-color: rgb(30, 30, 30); font-family: Consolas, &amp;quot;Courier New&amp;quot;, monospace; font-size: 14px; line-height: 19px;&quot;&gt;&lt;span style=&quot;color: #4ec9b0;&quot;&gt;actor&lt;/span&gt;:&lt;span style=&quot;color: #dcdcaa;&quot;&gt;OnEnterInteractiveArea&lt;/span&gt;&lt;/div&gt;" style="whiteSpace=wrap;html=1;" parent="1" vertex="1">
                    <mxGeometry x="630" y="800" width="120" height="60" as="geometry"/>
                </mxCell>
                <mxCell id="ZKPLTbpdLzS0un_BZ3tC-83" value="&lt;div style=&quot;color: rgb(212, 212, 212); background-color: rgb(30, 30, 30); font-family: Consolas, &amp;quot;Courier New&amp;quot;, monospace; font-size: 14px; line-height: 19px;&quot;&gt;&lt;span style=&quot;color: #ce9178;&quot;&gt;EnterTriggerArea&amp;nbsp;&lt;/span&gt;&lt;/div&gt;&lt;div style=&quot;color: rgb(212, 212, 212); background-color: rgb(30, 30, 30); font-family: Consolas, &amp;quot;Courier New&amp;quot;, monospace; font-size: 14px; line-height: 19px;&quot;&gt;&lt;span style=&quot;color: #ce9178;&quot;&gt;进入协程&lt;/span&gt;&lt;/div&gt;" style="whiteSpace=wrap;html=1;" parent="1" vertex="1">
                    <mxGeometry x="471.44000000000005" y="980" width="120" height="60" as="geometry"/>
                </mxCell>
                <mxCell id="ZKPLTbpdLzS0un_BZ3tC-86" value="&lt;div style=&quot;color: rgb(212, 212, 212); background-color: rgb(30, 30, 30); font-family: Consolas, &amp;quot;Courier New&amp;quot;, monospace; font-size: 14px; line-height: 19px;&quot;&gt;&lt;span style=&quot;color: #4ec9b0;&quot;&gt;baseCopyMapComponent&lt;/span&gt;&lt;/div&gt;" style="text;html=1;align=center;verticalAlign=middle;resizable=0;points=[];autosize=1;strokeColor=none;fillColor=none;" parent="1" vertex="1">
                    <mxGeometry x="570" y="790" width="180" height="30" as="geometry"/>
                </mxCell>
                <mxCell id="ZKPLTbpdLzS0un_BZ3tC-87" value="进入触发区域的表现" style="text;html=1;align=center;verticalAlign=middle;resizable=0;points=[];autosize=1;strokeColor=none;fillColor=none;" parent="1" vertex="1">
                    <mxGeometry x="695" y="865" width="130" height="30" as="geometry"/>
                </mxCell>
                <mxCell id="ZKPLTbpdLzS0un_BZ3tC-90" value="&lt;div style=&quot;color: rgb(212, 212, 212); background-color: rgb(30, 30, 30); font-family: Consolas, &amp;quot;Courier New&amp;quot;, monospace; font-size: 14px; line-height: 19px;&quot;&gt;&lt;span style=&quot;color: #569cd6;&quot;&gt;self&lt;/span&gt;:&lt;span style=&quot;color: #dcdcaa;&quot;&gt;ShowInteractionAreaDisplay&lt;/span&gt;()&lt;/div&gt;" style="whiteSpace=wrap;html=1;" parent="1" vertex="1">
                    <mxGeometry x="825" y="910" width="120" height="60" as="geometry"/>
                </mxCell>
                <mxCell id="ZKPLTbpdLzS0un_BZ3tC-217" style="edgeStyle=none;html=1;exitX=0.5;exitY=1;exitDx=0;exitDy=0;entryX=0.5;entryY=0;entryDx=0;entryDy=0;" parent="1" source="ZKPLTbpdLzS0un_BZ3tC-92" target="ZKPLTbpdLzS0un_BZ3tC-115" edge="1">
                    <mxGeometry relative="1" as="geometry">
                        <mxPoint x="809.3333333333334" y="1210" as="targetPoint"/>
                    </mxGeometry>
                </mxCell>
                <mxCell id="ZKPLTbpdLzS0un_BZ3tC-92" value="&lt;div style=&quot;color: rgb(212, 212, 212); background-color: rgb(30, 30, 30); font-family: Consolas, &amp;quot;Courier New&amp;quot;, monospace; font-size: 14px; line-height: 19px;&quot;&gt;&lt;span style=&quot;color: #569cd6;&quot;&gt;self&lt;/span&gt;:&lt;span style=&quot;color: #dcdcaa;&quot;&gt;RequestPreInteraction&lt;/span&gt;&lt;/div&gt;" style="whiteSpace=wrap;html=1;" parent="1" vertex="1">
                    <mxGeometry x="1030" y="790" width="120" height="60" as="geometry"/>
                </mxCell>
                <mxCell id="ZKPLTbpdLzS0un_BZ3tC-96" value="被动区域 请求预交互" style="text;html=1;align=center;verticalAlign=middle;resizable=0;points=[];autosize=1;strokeColor=none;fillColor=none;" parent="1" vertex="1">
                    <mxGeometry x="1020" y="760" width="130" height="30" as="geometry"/>
                </mxCell>
                <mxCell id="ZKPLTbpdLzS0un_BZ3tC-97" value="主动元素显示按钮" style="text;html=1;align=center;verticalAlign=middle;resizable=0;points=[];autosize=1;strokeColor=none;fillColor=none;" parent="1" vertex="1">
                    <mxGeometry x="870" y="875" width="120" height="30" as="geometry"/>
                </mxCell>
                <mxCell id="ZKPLTbpdLzS0un_BZ3tC-102" value="玩家点击" style="swimlane;whiteSpace=wrap;html=1;" parent="1" vertex="1">
                    <mxGeometry x="-530" y="1210" width="500" height="820" as="geometry"/>
                </mxCell>
                <mxCell id="ZKPLTbpdLzS0un_BZ3tC-99" value="玩家点击按钮" style="shape=step;perimeter=stepPerimeter;whiteSpace=wrap;html=1;fixedSize=1;" parent="ZKPLTbpdLzS0un_BZ3tC-102" vertex="1">
                    <mxGeometry x="48.440000000000055" y="50" width="120" height="80" as="geometry"/>
                </mxCell>
                <mxCell id="ZKPLTbpdLzS0un_BZ3tC-104" style="edgeStyle=none;html=1;exitX=0.5;exitY=1;exitDx=0;exitDy=0;entryX=0.5;entryY=0;entryDx=0;entryDy=0;" parent="ZKPLTbpdLzS0un_BZ3tC-102" source="ZKPLTbpdLzS0un_BZ3tC-100" target="ZKPLTbpdLzS0un_BZ3tC-103" edge="1">
                    <mxGeometry relative="1" as="geometry"/>
                </mxCell>
                <mxCell id="ZKPLTbpdLzS0un_BZ3tC-100" value="&lt;div style=&quot;color: rgb(212, 212, 212); background-color: rgb(30, 30, 30); font-family: Consolas, &amp;quot;Courier New&amp;quot;, monospace; font-size: 14px; line-height: 19px;&quot;&gt;&lt;span style=&quot;color: #4ec9b0;&quot;&gt;LevelElement&lt;/span&gt;:&lt;span style=&quot;color: #dcdcaa;&quot;&gt;OnButtonClicked&lt;/span&gt;&lt;/div&gt;" style="whiteSpace=wrap;html=1;" parent="ZKPLTbpdLzS0un_BZ3tC-102" vertex="1">
                    <mxGeometry x="267" y="60" width="120" height="60" as="geometry"/>
                </mxCell>
                <mxCell id="ZKPLTbpdLzS0un_BZ3tC-101" style="edgeStyle=none;html=1;exitX=1;exitY=0.5;exitDx=0;exitDy=0;entryX=0;entryY=0.5;entryDx=0;entryDy=0;" parent="ZKPLTbpdLzS0un_BZ3tC-102" source="ZKPLTbpdLzS0un_BZ3tC-99" target="ZKPLTbpdLzS0un_BZ3tC-100" edge="1">
                    <mxGeometry relative="1" as="geometry"/>
                </mxCell>
                <mxCell id="ZKPLTbpdLzS0un_BZ3tC-108" style="edgeStyle=none;html=1;exitX=0.5;exitY=1;exitDx=0;exitDy=0;entryX=0.5;entryY=0;entryDx=0;entryDy=0;" parent="ZKPLTbpdLzS0un_BZ3tC-102" source="ZKPLTbpdLzS0un_BZ3tC-103" target="ZKPLTbpdLzS0un_BZ3tC-105" edge="1">
                    <mxGeometry relative="1" as="geometry"/>
                </mxCell>
                <mxCell id="ZKPLTbpdLzS0un_BZ3tC-103" value="按钮点击交互的埋点" style="whiteSpace=wrap;html=1;" parent="ZKPLTbpdLzS0un_BZ3tC-102" vertex="1">
                    <mxGeometry x="267" y="170" width="120" height="60" as="geometry"/>
                </mxCell>
                <mxCell id="ZKPLTbpdLzS0un_BZ3tC-109" style="edgeStyle=none;html=1;exitX=0.5;exitY=1;exitDx=0;exitDy=0;entryX=0.5;entryY=0;entryDx=0;entryDy=0;" parent="ZKPLTbpdLzS0un_BZ3tC-102" source="ZKPLTbpdLzS0un_BZ3tC-105" target="ZKPLTbpdLzS0un_BZ3tC-106" edge="1">
                    <mxGeometry relative="1" as="geometry"/>
                </mxCell>
                <mxCell id="ZKPLTbpdLzS0un_BZ3tC-105" value="元素配置的属性鉴定" style="whiteSpace=wrap;html=1;" parent="ZKPLTbpdLzS0un_BZ3tC-102" vertex="1">
                    <mxGeometry x="267" y="300" width="120" height="60" as="geometry"/>
                </mxCell>
                <mxCell id="ZKPLTbpdLzS0un_BZ3tC-110" style="edgeStyle=none;html=1;exitX=0.5;exitY=1;exitDx=0;exitDy=0;" parent="ZKPLTbpdLzS0un_BZ3tC-102" source="ZKPLTbpdLzS0un_BZ3tC-106" target="ZKPLTbpdLzS0un_BZ3tC-107" edge="1">
                    <mxGeometry relative="1" as="geometry"/>
                </mxCell>
                <mxCell id="ZKPLTbpdLzS0un_BZ3tC-106" value="&lt;div style=&quot;color: rgb(212, 212, 212); background-color: rgb(30, 30, 30); font-family: Consolas, &amp;quot;Courier New&amp;quot;, monospace; font-size: 14px; line-height: 19px;&quot;&gt;&lt;span style=&quot;color: #569cd6;&quot;&gt;self&lt;/span&gt;:&lt;span style=&quot;color: #dcdcaa;&quot;&gt;HideInteractionAreaDisplay&lt;/span&gt;&lt;/div&gt;" style="whiteSpace=wrap;html=1;" parent="ZKPLTbpdLzS0un_BZ3tC-102" vertex="1">
                    <mxGeometry x="267" y="430" width="120" height="60" as="geometry"/>
                </mxCell>
                <mxCell id="ZKPLTbpdLzS0un_BZ3tC-107" value="&lt;div style=&quot;color: rgb(212, 212, 212); background-color: rgb(30, 30, 30); font-family: Consolas, &amp;quot;Courier New&amp;quot;, monospace; font-size: 14px; line-height: 19px;&quot;&gt;&lt;span style=&quot;color: #569cd6;&quot;&gt;self&lt;/span&gt;:&lt;span style=&quot;color: #dcdcaa;&quot;&gt;RequestPreInteraction&lt;/span&gt;&lt;/div&gt;" style="whiteSpace=wrap;html=1;" parent="ZKPLTbpdLzS0un_BZ3tC-102" vertex="1">
                    <mxGeometry x="270" y="560" width="120" height="60" as="geometry"/>
                </mxCell>
                <mxCell id="ZKPLTbpdLzS0un_BZ3tC-111" value="&lt;span style=&quot;color: rgb(156, 220, 254); font-family: Consolas, &amp;quot;Courier New&amp;quot;, monospace; font-size: 14px; font-weight: 400; background-color: rgb(30, 30, 30);&quot;&gt;InteractionCenter&lt;/span&gt;" style="swimlane;whiteSpace=wrap;html=1;" parent="1" vertex="1">
                    <mxGeometry x="1690" y="1080" width="530" height="2410" as="geometry"/>
                </mxCell>
                <mxCell id="ZKPLTbpdLzS0un_BZ3tC-120" style="edgeStyle=none;html=1;exitX=0.5;exitY=1;exitDx=0;exitDy=0;entryX=0.5;entryY=0;entryDx=0;entryDy=0;" parent="ZKPLTbpdLzS0un_BZ3tC-111" source="ZKPLTbpdLzS0un_BZ3tC-116" target="ZKPLTbpdLzS0un_BZ3tC-119" edge="1">
                    <mxGeometry relative="1" as="geometry"/>
                </mxCell>
                <mxCell id="ZKPLTbpdLzS0un_BZ3tC-116" value="&lt;div style=&quot;color: rgb(212, 212, 212); background-color: rgb(30, 30, 30); font-family: Consolas, &amp;quot;Courier New&amp;quot;, monospace; font-size: 14px; line-height: 19px;&quot;&gt;&lt;div style=&quot;line-height: 19px;&quot;&gt;&lt;span style=&quot;color: #4ec9b0;&quot;&gt;InteractionCenter&lt;/span&gt;:&lt;span style=&quot;color: #dcdcaa;&quot;&gt;OnRequestPreInteraction&lt;/span&gt;&lt;/div&gt;&lt;/div&gt;" style="whiteSpace=wrap;html=1;" parent="ZKPLTbpdLzS0un_BZ3tC-111" vertex="1">
                    <mxGeometry x="200" y="210" width="120" height="60" as="geometry"/>
                </mxCell>
                <mxCell id="ZKPLTbpdLzS0un_BZ3tC-122" style="edgeStyle=none;html=1;exitX=0.5;exitY=1;exitDx=0;exitDy=0;" parent="ZKPLTbpdLzS0un_BZ3tC-111" source="ZKPLTbpdLzS0un_BZ3tC-119" target="ZKPLTbpdLzS0un_BZ3tC-121" edge="1">
                    <mxGeometry relative="1" as="geometry"/>
                </mxCell>
                <mxCell id="ZKPLTbpdLzS0un_BZ3tC-124" style="edgeStyle=none;html=1;exitX=0.5;exitY=1;exitDx=0;exitDy=0;entryX=0.5;entryY=0;entryDx=0;entryDy=0;" parent="ZKPLTbpdLzS0un_BZ3tC-111" source="ZKPLTbpdLzS0un_BZ3tC-119" target="ZKPLTbpdLzS0un_BZ3tC-123" edge="1">
                    <mxGeometry relative="1" as="geometry"/>
                </mxCell>
                <mxCell id="ZKPLTbpdLzS0un_BZ3tC-119" value="&lt;div style=&quot;color: rgb(212, 212, 212); background-color: rgb(30, 30, 30); font-family: Consolas, &amp;quot;Courier New&amp;quot;, monospace; font-size: 14px; line-height: 19px;&quot;&gt;&lt;span style=&quot;color: #569cd6;&quot;&gt;self&lt;/span&gt;:&lt;span style=&quot;color: #dcdcaa;&quot;&gt;NotifyInitiatorPreInteraction&lt;/span&gt;&lt;/div&gt;" style="whiteSpace=wrap;html=1;" parent="ZKPLTbpdLzS0un_BZ3tC-111" vertex="1">
                    <mxGeometry x="200" y="350" width="120" height="60" as="geometry"/>
                </mxCell>
                <mxCell id="ZKPLTbpdLzS0un_BZ3tC-121" value="发消息" style="whiteSpace=wrap;html=1;" parent="ZKPLTbpdLzS0un_BZ3tC-111" vertex="1">
                    <mxGeometry x="330" y="504" width="120" height="60" as="geometry"/>
                </mxCell>
                <mxCell id="ZKPLTbpdLzS0un_BZ3tC-129" style="edgeStyle=none;html=1;exitX=0.5;exitY=1;exitDx=0;exitDy=0;" parent="ZKPLTbpdLzS0un_BZ3tC-111" source="ZKPLTbpdLzS0un_BZ3tC-123" target="ZKPLTbpdLzS0un_BZ3tC-128" edge="1">
                    <mxGeometry relative="1" as="geometry"/>
                </mxCell>
                <mxCell id="ZKPLTbpdLzS0un_BZ3tC-130" value="Y" style="edgeLabel;html=1;align=center;verticalAlign=middle;resizable=0;points=[];" parent="ZKPLTbpdLzS0un_BZ3tC-129" vertex="1" connectable="0">
                    <mxGeometry x="-0.3156" y="1" relative="1" as="geometry">
                        <mxPoint as="offset"/>
                    </mxGeometry>
                </mxCell>
                <mxCell id="ZKPLTbpdLzS0un_BZ3tC-123" value="&lt;div style=&quot;color: rgb(212, 212, 212); background-color: rgb(30, 30, 30); font-family: Consolas, &amp;quot;Courier New&amp;quot;, monospace; font-size: 14px; line-height: 19px;&quot;&gt;&lt;span style=&quot;color: #9cdcfe;&quot;&gt;Body&lt;/span&gt;.&lt;span style=&quot;color: #4ec9b0;&quot;&gt;NeedEnterInterac&lt;/span&gt;&lt;/div&gt;" style="rhombus;whiteSpace=wrap;html=1;" parent="ZKPLTbpdLzS0un_BZ3tC-111" vertex="1">
                    <mxGeometry x="150" y="450" width="80" height="80" as="geometry"/>
                </mxCell>
                <mxCell id="ZKPLTbpdLzS0un_BZ3tC-128" value="&#10;&lt;div style=&quot;color: rgb(212, 212, 212); background-color: rgb(30, 30, 30); font-family: Consolas, &amp;quot;Courier New&amp;quot;, monospace; font-weight: normal; font-size: 14px; line-height: 19px;&quot;&gt;&lt;div&gt;&lt;span style=&quot;color: #569cd6;&quot;&gt;self&lt;/span&gt;&lt;span style=&quot;color: #d4d4d4;&quot;&gt;:&lt;/span&gt;&lt;span style=&quot;color: #dcdcaa;&quot;&gt;EnterInteractState&lt;/span&gt;&lt;/div&gt;&lt;/div&gt;&#10;&#10;" style="whiteSpace=wrap;html=1;" parent="ZKPLTbpdLzS0un_BZ3tC-111" vertex="1">
                    <mxGeometry x="130" y="620" width="120" height="60" as="geometry"/>
                </mxCell>
                <mxCell id="ZKPLTbpdLzS0un_BZ3tC-125" value="要不要进交互状态" style="text;html=1;align=center;verticalAlign=middle;resizable=0;points=[];autosize=1;strokeColor=none;fillColor=none;" parent="ZKPLTbpdLzS0un_BZ3tC-111" vertex="1">
                    <mxGeometry x="130" y="500" width="120" height="30" as="geometry"/>
                </mxCell>
                <mxCell id="ZKPLTbpdLzS0un_BZ3tC-146" value="" style="whiteSpace=wrap;html=1;" parent="ZKPLTbpdLzS0un_BZ3tC-111" vertex="1">
                    <mxGeometry x="142" y="820" width="120" height="60" as="geometry"/>
                </mxCell>
                <mxCell id="ZKPLTbpdLzS0un_BZ3tC-158" value="&lt;div style=&quot;color: rgb(212, 212, 212); background-color: rgb(30, 30, 30); font-family: Consolas, &amp;quot;Courier New&amp;quot;, monospace; font-size: 14px; line-height: 19px;&quot;&gt;&lt;span style=&quot;color: #dcdcaa;&quot;&gt;OnRequestStartInteraction&lt;/span&gt;&lt;/div&gt;" style="whiteSpace=wrap;html=1;" parent="ZKPLTbpdLzS0un_BZ3tC-111" vertex="1">
                    <mxGeometry x="160" y="970" width="120" height="60" as="geometry"/>
                </mxCell>
                <mxCell id="ZKPLTbpdLzS0un_BZ3tC-214" value="&lt;div style=&quot;color: rgb(212, 212, 212); background-color: rgb(30, 30, 30); font-family: Consolas, &amp;quot;Courier New&amp;quot;, monospace; font-size: 14px; line-height: 19px;&quot;&gt;&lt;span style=&quot;color: #569cd6;&quot;&gt;self&lt;/span&gt;:&lt;span style=&quot;color: #dcdcaa;&quot;&gt;LeaveInteractState&lt;/span&gt;&lt;/div&gt;" style="whiteSpace=wrap;html=1;" parent="ZKPLTbpdLzS0un_BZ3tC-111" vertex="1">
                    <mxGeometry x="170" y="2080" width="120" height="60" as="geometry"/>
                </mxCell>
                <mxCell id="ZKPLTbpdLzS0un_BZ3tC-150" value="&lt;span style=&quot;color: rgb(78, 201, 176); font-family: Consolas, &amp;quot;Courier New&amp;quot;, monospace; font-size: 14px; font-weight: 400; background-color: rgb(30, 30, 30);&quot;&gt;LevelHero&lt;/span&gt;" style="swimlane;whiteSpace=wrap;html=1;" parent="1" vertex="1">
                    <mxGeometry x="2550" y="1140" width="290" height="940" as="geometry"/>
                </mxCell>
                <mxCell id="ZKPLTbpdLzS0un_BZ3tC-131" value="&lt;div style=&quot;color: rgb(212, 212, 212); background-color: rgb(30, 30, 30); font-family: Consolas, &amp;quot;Courier New&amp;quot;, monospace; font-size: 14px; line-height: 19px;&quot;&gt;&lt;span style=&quot;color: #569cd6;&quot;&gt;self&lt;/span&gt;:&lt;span style=&quot;color: #dcdcaa;&quot;&gt;OnInteractionInitiatorClickedEvent&lt;/span&gt;&lt;/div&gt;" style="whiteSpace=wrap;html=1;" parent="ZKPLTbpdLzS0un_BZ3tC-150" vertex="1">
                    <mxGeometry x="80" y="454" width="120" height="60" as="geometry"/>
                </mxCell>
                <mxCell id="ZKPLTbpdLzS0un_BZ3tC-137" value="&lt;div style=&quot;color: rgb(212, 212, 212); background-color: rgb(30, 30, 30); font-family: Consolas, &amp;quot;Courier New&amp;quot;, monospace; font-size: 14px; line-height: 19px;&quot;&gt;&lt;span style=&quot;color: #569cd6;&quot;&gt;self&lt;/span&gt;:&lt;span style=&quot;color: #dcdcaa;&quot;&gt;OnMoveAndFace&lt;/span&gt;&lt;/div&gt;" style="whiteSpace=wrap;html=1;" parent="ZKPLTbpdLzS0un_BZ3tC-150" vertex="1">
                    <mxGeometry x="50" y="720" width="120" height="60" as="geometry"/>
                </mxCell>
                <mxCell id="ZKPLTbpdLzS0un_BZ3tC-139" value="发消息" style="whiteSpace=wrap;html=1;" parent="ZKPLTbpdLzS0un_BZ3tC-150" vertex="1">
                    <mxGeometry x="160" y="820" width="120" height="60" as="geometry"/>
                </mxCell>
                <mxCell id="ZKPLTbpdLzS0un_BZ3tC-140" style="edgeStyle=none;html=1;entryX=0.5;entryY=0;entryDx=0;entryDy=0;" parent="ZKPLTbpdLzS0un_BZ3tC-150" source="ZKPLTbpdLzS0un_BZ3tC-137" target="ZKPLTbpdLzS0un_BZ3tC-139" edge="1">
                    <mxGeometry relative="1" as="geometry"/>
                </mxCell>
                <mxCell id="ZKPLTbpdLzS0un_BZ3tC-135" value="要不要玩家交互动作" style="rhombus;whiteSpace=wrap;html=1;" parent="ZKPLTbpdLzS0un_BZ3tC-150" vertex="1">
                    <mxGeometry x="110" y="580" width="80" height="80" as="geometry"/>
                </mxCell>
                <mxCell id="ZKPLTbpdLzS0un_BZ3tC-136" style="edgeStyle=none;html=1;exitX=0.5;exitY=1;exitDx=0;exitDy=0;" parent="ZKPLTbpdLzS0un_BZ3tC-150" source="ZKPLTbpdLzS0un_BZ3tC-131" target="ZKPLTbpdLzS0un_BZ3tC-135" edge="1">
                    <mxGeometry relative="1" as="geometry"/>
                </mxCell>
                <mxCell id="ZKPLTbpdLzS0un_BZ3tC-138" style="edgeStyle=none;html=1;exitX=0.5;exitY=1;exitDx=0;exitDy=0;entryX=0.5;entryY=0;entryDx=0;entryDy=0;" parent="ZKPLTbpdLzS0un_BZ3tC-150" source="ZKPLTbpdLzS0un_BZ3tC-135" target="ZKPLTbpdLzS0un_BZ3tC-137" edge="1">
                    <mxGeometry relative="1" as="geometry"/>
                </mxCell>
                <mxCell id="ZKPLTbpdLzS0un_BZ3tC-143" value="Y" style="edgeLabel;html=1;align=center;verticalAlign=middle;resizable=0;points=[];" parent="ZKPLTbpdLzS0un_BZ3tC-138" vertex="1" connectable="0">
                    <mxGeometry x="-0.3541" y="-1" relative="1" as="geometry">
                        <mxPoint as="offset"/>
                    </mxGeometry>
                </mxCell>
                <mxCell id="ZKPLTbpdLzS0un_BZ3tC-141" style="edgeStyle=none;html=1;exitX=1;exitY=0.5;exitDx=0;exitDy=0;entryX=0.75;entryY=0;entryDx=0;entryDy=0;" parent="ZKPLTbpdLzS0un_BZ3tC-150" source="ZKPLTbpdLzS0un_BZ3tC-135" target="ZKPLTbpdLzS0un_BZ3tC-139" edge="1">
                    <mxGeometry relative="1" as="geometry"/>
                </mxCell>
                <mxCell id="ZKPLTbpdLzS0un_BZ3tC-142" value="N" style="edgeLabel;html=1;align=center;verticalAlign=middle;resizable=0;points=[];" parent="ZKPLTbpdLzS0un_BZ3tC-141" vertex="1" connectable="0">
                    <mxGeometry x="-0.5512" y="1" relative="1" as="geometry">
                        <mxPoint as="offset"/>
                    </mxGeometry>
                </mxCell>
                <mxCell id="ZKPLTbpdLzS0un_BZ3tC-132" style="edgeStyle=none;html=1;exitX=1;exitY=0.5;exitDx=0;exitDy=0;" parent="1" source="ZKPLTbpdLzS0un_BZ3tC-121" target="ZKPLTbpdLzS0un_BZ3tC-131" edge="1">
                    <mxGeometry relative="1" as="geometry"/>
                </mxCell>
                <mxCell id="ZKPLTbpdLzS0un_BZ3tC-133" value="&lt;div style=&quot;color: rgb(212, 212, 212); background-color: rgb(30, 30, 30); font-family: Consolas, &amp;quot;Courier New&amp;quot;, monospace; font-size: 14px; line-height: 19px;&quot;&gt;&lt;span style=&quot;color: #9cdcfe;&quot;&gt;PureMVCEvents&lt;/span&gt;.&lt;span style=&quot;color: #4ec9b0;&quot;&gt;RequestInitiatorPreInteraction&lt;/span&gt;&lt;/div&gt;" style="edgeLabel;html=1;align=center;verticalAlign=middle;resizable=0;points=[];" parent="ZKPLTbpdLzS0un_BZ3tC-132" vertex="1" connectable="0">
                    <mxGeometry x="0.1426" y="1" relative="1" as="geometry">
                        <mxPoint x="-64" y="-3" as="offset"/>
                    </mxGeometry>
                </mxCell>
                <mxCell id="ZKPLTbpdLzS0un_BZ3tC-144" style="edgeStyle=none;html=1;exitX=0;exitY=0.5;exitDx=0;exitDy=0;entryX=1;entryY=0.5;entryDx=0;entryDy=0;" parent="1" source="ZKPLTbpdLzS0un_BZ3tC-139" target="ZKPLTbpdLzS0un_BZ3tC-146" edge="1">
                    <mxGeometry relative="1" as="geometry">
                        <mxPoint x="1830" y="2050" as="targetPoint"/>
                    </mxGeometry>
                </mxCell>
                <mxCell id="ZKPLTbpdLzS0un_BZ3tC-145" value="&lt;div style=&quot;color: rgb(212, 212, 212); background-color: rgb(30, 30, 30); font-family: Consolas, &amp;quot;Courier New&amp;quot;, monospace; font-size: 14px; line-height: 19px;&quot;&gt;&lt;span style=&quot;color: #9cdcfe;&quot;&gt;PureMVCEvents&lt;/span&gt;.&lt;span style=&quot;color: #4ec9b0;&quot;&gt;InitiatorPreInteractionCompleted&lt;/span&gt;&lt;/div&gt;" style="edgeLabel;html=1;align=center;verticalAlign=middle;resizable=0;points=[];" parent="ZKPLTbpdLzS0un_BZ3tC-144" vertex="1" connectable="0">
                    <mxGeometry x="-0.1599" y="2" relative="1" as="geometry">
                        <mxPoint as="offset"/>
                    </mxGeometry>
                </mxCell>
                <mxCell id="ZKPLTbpdLzS0un_BZ3tC-151" value="&lt;span style=&quot;color: rgb(78, 201, 176); font-family: Consolas, &amp;quot;Courier New&amp;quot;, monospace; font-size: 14px; font-weight: 400; background-color: rgb(30, 30, 30);&quot;&gt;z&lt;/span&gt;" style="swimlane;whiteSpace=wrap;html=1;" parent="1" vertex="1">
                    <mxGeometry x="310.71999999999997" y="1080" width="1100" height="2340" as="geometry"/>
                </mxCell>
                <mxCell id="ZKPLTbpdLzS0un_BZ3tC-115" value="&lt;div style=&quot;color: rgb(212, 212, 212); background-color: rgb(30, 30, 30); font-family: Consolas, &amp;quot;Courier New&amp;quot;, monospace; font-size: 14px; line-height: 19px;&quot;&gt;&lt;span style=&quot;color: #4ec9b0;&quot;&gt;LevelElement&lt;/span&gt;:&lt;span style=&quot;color: #dcdcaa;&quot;&gt;RequestPreInteraction&lt;/span&gt;&lt;/div&gt;" style="whiteSpace=wrap;html=1;" parent="ZKPLTbpdLzS0un_BZ3tC-151" vertex="1">
                    <mxGeometry x="36.44" y="170" width="120" height="60" as="geometry"/>
                </mxCell>
                <mxCell id="ZKPLTbpdLzS0un_BZ3tC-154" style="edgeStyle=none;html=1;exitX=0.5;exitY=1;exitDx=0;exitDy=0;" parent="ZKPLTbpdLzS0un_BZ3tC-151" source="ZKPLTbpdLzS0un_BZ3tC-147" target="ZKPLTbpdLzS0un_BZ3tC-153" edge="1">
                    <mxGeometry relative="1" as="geometry"/>
                </mxCell>
                <mxCell id="ZKPLTbpdLzS0un_BZ3tC-147" value="&lt;div style=&quot;color: rgb(212, 212, 212); background-color: rgb(30, 30, 30); font-family: Consolas, &amp;quot;Courier New&amp;quot;, monospace; font-size: 14px; line-height: 19px;&quot;&gt;&lt;span style=&quot;color: #dcdcaa;&quot;&gt;OnPreInteractionCompleted&lt;/span&gt;&lt;/div&gt;" style="whiteSpace=wrap;html=1;" parent="ZKPLTbpdLzS0un_BZ3tC-151" vertex="1">
                    <mxGeometry x="36.44" y="790" width="120" height="60" as="geometry"/>
                </mxCell>
                <mxCell id="ZKPLTbpdLzS0un_BZ3tC-153" value="&lt;div style=&quot;color: rgb(212, 212, 212); background-color: rgb(30, 30, 30); font-family: Consolas, &amp;quot;Courier New&amp;quot;, monospace; font-size: 14px; line-height: 19px;&quot;&gt;&lt;span style=&quot;color: #dcdcaa;&quot;&gt;RequestInteraction&lt;/span&gt;&lt;/div&gt;" style="whiteSpace=wrap;html=1;" parent="ZKPLTbpdLzS0un_BZ3tC-151" vertex="1">
                    <mxGeometry x="30" y="940" width="120" height="60" as="geometry"/>
                </mxCell>
                <mxCell id="ZKPLTbpdLzS0un_BZ3tC-163" style="edgeStyle=none;html=1;exitX=0.5;exitY=1;exitDx=0;exitDy=0;" parent="ZKPLTbpdLzS0un_BZ3tC-151" source="ZKPLTbpdLzS0un_BZ3tC-161" target="ZKPLTbpdLzS0un_BZ3tC-162" edge="1">
                    <mxGeometry relative="1" as="geometry"/>
                </mxCell>
                <mxCell id="ZKPLTbpdLzS0un_BZ3tC-161" value="&lt;div style=&quot;color: rgb(212, 212, 212); background-color: rgb(30, 30, 30); font-family: Consolas, &amp;quot;Courier New&amp;quot;, monospace; font-size: 14px; line-height: 19px;&quot;&gt;&lt;span style=&quot;color: #dcdcaa;&quot;&gt;OnStartInteraction&lt;/span&gt;&lt;/div&gt;" style="whiteSpace=wrap;html=1;" parent="ZKPLTbpdLzS0un_BZ3tC-151" vertex="1">
                    <mxGeometry x="340" y="1070" width="120" height="60" as="geometry"/>
                </mxCell>
                <mxCell id="ZKPLTbpdLzS0un_BZ3tC-166" style="edgeStyle=none;html=1;exitX=0.5;exitY=1;exitDx=0;exitDy=0;" parent="ZKPLTbpdLzS0un_BZ3tC-151" source="ZKPLTbpdLzS0un_BZ3tC-162" target="ZKPLTbpdLzS0un_BZ3tC-164" edge="1">
                    <mxGeometry relative="1" as="geometry"/>
                </mxCell>
                <mxCell id="ZKPLTbpdLzS0un_BZ3tC-169" value="Y" style="edgeLabel;html=1;align=center;verticalAlign=middle;resizable=0;points=[];" parent="ZKPLTbpdLzS0un_BZ3tC-166" vertex="1" connectable="0">
                    <mxGeometry x="-0.6" y="-1" relative="1" as="geometry">
                        <mxPoint as="offset"/>
                    </mxGeometry>
                </mxCell>
                <mxCell id="ZKPLTbpdLzS0un_BZ3tC-167" style="edgeStyle=none;html=1;entryX=0.5;entryY=0;entryDx=0;entryDy=0;" parent="ZKPLTbpdLzS0un_BZ3tC-151" source="ZKPLTbpdLzS0un_BZ3tC-162" target="ZKPLTbpdLzS0un_BZ3tC-165" edge="1">
                    <mxGeometry relative="1" as="geometry"/>
                </mxCell>
                <mxCell id="ZKPLTbpdLzS0un_BZ3tC-168" value="N" style="edgeLabel;html=1;align=center;verticalAlign=middle;resizable=0;points=[];" parent="ZKPLTbpdLzS0un_BZ3tC-167" vertex="1" connectable="0">
                    <mxGeometry x="-0.1257" relative="1" as="geometry">
                        <mxPoint as="offset"/>
                    </mxGeometry>
                </mxCell>
                <mxCell id="ZKPLTbpdLzS0un_BZ3tC-162" value="&lt;div style=&quot;color: rgb(212, 212, 212); background-color: rgb(30, 30, 30); font-family: Consolas, &amp;quot;Courier New&amp;quot;, monospace; font-size: 14px; line-height: 19px;&quot;&gt;&lt;div style=&quot;line-height: 19px;&quot;&gt;&lt;span style=&quot;color: #569cd6;&quot;&gt;self&lt;/span&gt;:&lt;span style=&quot;color: #dcdcaa;&quot;&gt;IsLocalEventUnit&lt;/span&gt;()&lt;/div&gt;&lt;/div&gt;" style="rhombus;whiteSpace=wrap;html=1;" parent="ZKPLTbpdLzS0un_BZ3tC-151" vertex="1">
                    <mxGeometry x="360" y="1160" width="80" height="80" as="geometry"/>
                </mxCell>
                <mxCell id="ZKPLTbpdLzS0un_BZ3tC-175" style="edgeStyle=none;html=1;exitX=0.5;exitY=1;exitDx=0;exitDy=0;entryX=0.5;entryY=0;entryDx=0;entryDy=0;" parent="ZKPLTbpdLzS0un_BZ3tC-151" source="ZKPLTbpdLzS0un_BZ3tC-164" target="ZKPLTbpdLzS0un_BZ3tC-173" edge="1">
                    <mxGeometry relative="1" as="geometry"/>
                </mxCell>
                <mxCell id="ZKPLTbpdLzS0un_BZ3tC-176" style="edgeStyle=none;html=1;exitX=0.25;exitY=1;exitDx=0;exitDy=0;entryX=0.5;entryY=0;entryDx=0;entryDy=0;" parent="ZKPLTbpdLzS0un_BZ3tC-151" source="ZKPLTbpdLzS0un_BZ3tC-164" target="ZKPLTbpdLzS0un_BZ3tC-172" edge="1">
                    <mxGeometry relative="1" as="geometry"/>
                </mxCell>
                <mxCell id="ZKPLTbpdLzS0un_BZ3tC-177" style="edgeStyle=none;html=1;exitX=0.75;exitY=1;exitDx=0;exitDy=0;entryX=0.567;entryY=-0.035;entryDx=0;entryDy=0;entryPerimeter=0;" parent="ZKPLTbpdLzS0un_BZ3tC-151" source="ZKPLTbpdLzS0un_BZ3tC-164" target="ZKPLTbpdLzS0un_BZ3tC-174" edge="1">
                    <mxGeometry relative="1" as="geometry"/>
                </mxCell>
                <mxCell id="ZKPLTbpdLzS0un_BZ3tC-164" value="&lt;div style=&quot;color: rgb(212, 212, 212); background-color: rgb(30, 30, 30); font-family: Consolas, &amp;quot;Courier New&amp;quot;, monospace; font-size: 14px; line-height: 19px;&quot;&gt;&lt;span style=&quot;color: #569cd6;&quot;&gt;self&lt;/span&gt;:&lt;span style=&quot;color: #dcdcaa;&quot;&gt;OnLocalEventExecute&lt;/span&gt;()&lt;/div&gt;" style="whiteSpace=wrap;html=1;" parent="ZKPLTbpdLzS0un_BZ3tC-151" vertex="1">
                    <mxGeometry x="200" y="1300" width="120" height="60" as="geometry"/>
                </mxCell>
                <mxCell id="ZKPLTbpdLzS0un_BZ3tC-184" style="edgeStyle=none;html=1;exitX=0.5;exitY=1;exitDx=0;exitDy=0;entryX=0.5;entryY=0;entryDx=0;entryDy=0;" parent="ZKPLTbpdLzS0un_BZ3tC-151" source="ZKPLTbpdLzS0un_BZ3tC-165" target="ZKPLTbpdLzS0un_BZ3tC-183" edge="1">
                    <mxGeometry relative="1" as="geometry"/>
                </mxCell>
                <mxCell id="ZKPLTbpdLzS0un_BZ3tC-165" value="&lt;div style=&quot;color: rgb(212, 212, 212); background-color: rgb(30, 30, 30); font-family: Consolas, &amp;quot;Courier New&amp;quot;, monospace; font-size: 14px; line-height: 19px;&quot;&gt;&lt;span style=&quot;color: #569cd6;&quot;&gt;self&lt;/span&gt;:&lt;span style=&quot;color: #dcdcaa;&quot;&gt;OnElementExecute&lt;/span&gt;&lt;/div&gt;" style="whiteSpace=wrap;html=1;" parent="ZKPLTbpdLzS0un_BZ3tC-151" vertex="1">
                    <mxGeometry x="780" y="1315" width="120" height="60" as="geometry"/>
                </mxCell>
                <mxCell id="ZKPLTbpdLzS0un_BZ3tC-171" value="程序元素" style="text;html=1;align=center;verticalAlign=middle;resizable=0;points=[];autosize=1;strokeColor=none;fillColor=none;" parent="ZKPLTbpdLzS0un_BZ3tC-151" vertex="1">
                    <mxGeometry x="830" y="1285" width="70" height="30" as="geometry"/>
                </mxCell>
                <mxCell id="ZKPLTbpdLzS0un_BZ3tC-172" value="&lt;div style=&quot;color: rgb(212, 212, 212); background-color: rgb(30, 30, 30); font-family: Consolas, &amp;quot;Courier New&amp;quot;, monospace; font-size: 14px; line-height: 19px;&quot;&gt;&lt;span style=&quot;color: #569cd6;&quot;&gt;self&lt;/span&gt;:&lt;span style=&quot;color: #dcdcaa;&quot;&gt;EnterInteractio&lt;/span&gt;&lt;/div&gt;" style="whiteSpace=wrap;html=1;" parent="ZKPLTbpdLzS0un_BZ3tC-151" vertex="1">
                    <mxGeometry x="20" y="1480" width="120" height="60" as="geometry"/>
                </mxCell>
                <mxCell id="ZKPLTbpdLzS0un_BZ3tC-251" style="edgeStyle=none;html=1;exitX=0.5;exitY=1;exitDx=0;exitDy=0;" parent="ZKPLTbpdLzS0un_BZ3tC-151" source="ZKPLTbpdLzS0un_BZ3tC-173" target="ZKPLTbpdLzS0un_BZ3tC-250" edge="1">
                    <mxGeometry relative="1" as="geometry"/>
                </mxCell>
                <mxCell id="ZKPLTbpdLzS0un_BZ3tC-173" value="&lt;div style=&quot;color: rgb(212, 212, 212); background-color: rgb(30, 30, 30); font-family: Consolas, &amp;quot;Courier New&amp;quot;, monospace; font-size: 14px; line-height: 19px;&quot;&gt;&lt;span style=&quot;color: #569cd6;&quot;&gt;self&lt;/span&gt;:&lt;span style=&quot;color: #dcdcaa;&quot;&gt;ExcuteLocalEvent&lt;/span&gt;&lt;/div&gt;" style="whiteSpace=wrap;html=1;" parent="ZKPLTbpdLzS0un_BZ3tC-151" vertex="1">
                    <mxGeometry x="180" y="1470" width="120" height="60" as="geometry"/>
                </mxCell>
                <mxCell id="ZKPLTbpdLzS0un_BZ3tC-174" value="&lt;div style=&quot;color: rgb(212, 212, 212); background-color: rgb(30, 30, 30); font-family: Consolas, &amp;quot;Courier New&amp;quot;, monospace; font-size: 14px; line-height: 19px;&quot;&gt;&lt;span style=&quot;color: #569cd6;&quot;&gt;self&lt;/span&gt;:&lt;span style=&quot;color: #dcdcaa;&quot;&gt;RecordLastTriggerAreaMessage&lt;/span&gt;&lt;/div&gt;" style="whiteSpace=wrap;html=1;" parent="ZKPLTbpdLzS0un_BZ3tC-151" vertex="1">
                    <mxGeometry x="391" y="1490" width="120" height="60" as="geometry"/>
                </mxCell>
                <mxCell id="ZKPLTbpdLzS0un_BZ3tC-178" value="&lt;div style=&quot;color: rgb(212, 212, 212); background-color: rgb(30, 30, 30); font-family: Consolas, &amp;quot;Courier New&amp;quot;, monospace; font-size: 14px; line-height: 19px;&quot;&gt;&lt;span style=&quot;color: #569cd6;&quot;&gt;elf&lt;/span&gt;.&lt;span style=&quot;color: #4ec9b0;&quot;&gt;bEnterInteraction&lt;/span&gt; = &lt;span style=&quot;color: #569cd6;&quot;&gt;true&lt;/span&gt;;&lt;/div&gt;" style="text;html=1;align=center;verticalAlign=middle;resizable=0;points=[];autosize=1;strokeColor=none;fillColor=none;" parent="ZKPLTbpdLzS0un_BZ3tC-151" vertex="1">
                    <mxGeometry x="-50" y="1520" width="250" height="30" as="geometry"/>
                </mxCell>
                <mxCell id="ZKPLTbpdLzS0un_BZ3tC-179" value="记录上次触发区域消息" style="text;html=1;align=center;verticalAlign=middle;resizable=0;points=[];autosize=1;strokeColor=none;fillColor=none;" parent="ZKPLTbpdLzS0un_BZ3tC-151" vertex="1">
                    <mxGeometry x="330" y="1530" width="140" height="30" as="geometry"/>
                </mxCell>
                <mxCell id="ZKPLTbpdLzS0un_BZ3tC-180" value="执行协程" style="text;html=1;align=center;verticalAlign=middle;resizable=0;points=[];autosize=1;strokeColor=none;fillColor=none;" parent="ZKPLTbpdLzS0un_BZ3tC-151" vertex="1">
                    <mxGeometry x="215" y="1505" width="70" height="30" as="geometry"/>
                </mxCell>
                <mxCell id="ZKPLTbpdLzS0un_BZ3tC-170" value="本地事件元素" style="text;html=1;align=center;verticalAlign=middle;resizable=0;points=[];autosize=1;strokeColor=none;fillColor=none;" parent="ZKPLTbpdLzS0un_BZ3tC-151" vertex="1">
                    <mxGeometry x="150" y="1300" width="100" height="30" as="geometry"/>
                </mxCell>
                <mxCell id="ZKPLTbpdLzS0un_BZ3tC-186" style="edgeStyle=none;html=1;exitX=0.5;exitY=1;exitDx=0;exitDy=0;" parent="ZKPLTbpdLzS0un_BZ3tC-151" source="ZKPLTbpdLzS0un_BZ3tC-183" target="ZKPLTbpdLzS0un_BZ3tC-185" edge="1">
                    <mxGeometry relative="1" as="geometry"/>
                </mxCell>
                <mxCell id="ZKPLTbpdLzS0un_BZ3tC-183" value="&lt;div style=&quot;color: rgb(212, 212, 212); background-color: rgb(30, 30, 30); font-family: Consolas, &amp;quot;Courier New&amp;quot;, monospace; font-size: 14px; line-height: 19px;&quot;&gt;&lt;span style=&quot;color: #569cd6;&quot;&gt;self&lt;/span&gt;:&lt;span style=&quot;color: #dcdcaa;&quot;&gt;EnterInteraction&lt;/span&gt;&lt;/div&gt;" style="whiteSpace=wrap;html=1;" parent="ZKPLTbpdLzS0un_BZ3tC-151" vertex="1">
                    <mxGeometry x="780" y="1410" width="120" height="60" as="geometry"/>
                </mxCell>
                <mxCell id="ZKPLTbpdLzS0un_BZ3tC-193" style="edgeStyle=none;html=1;exitX=0.5;exitY=1;exitDx=0;exitDy=0;entryX=0.5;entryY=0;entryDx=0;entryDy=0;" parent="ZKPLTbpdLzS0un_BZ3tC-151" source="ZKPLTbpdLzS0un_BZ3tC-185" target="ZKPLTbpdLzS0un_BZ3tC-190" edge="1">
                    <mxGeometry relative="1" as="geometry"/>
                </mxCell>
                <mxCell id="ZKPLTbpdLzS0un_BZ3tC-185" value="&lt;div style=&quot;color: rgb(212, 212, 212); background-color: rgb(30, 30, 30); font-family: Consolas, &amp;quot;Courier New&amp;quot;, monospace; font-size: 14px; line-height: 19px;&quot;&gt;&lt;span style=&quot;color: #dcdcaa;&quot;&gt;OnSelectInteractionEvent&lt;/span&gt;&lt;/div&gt;" style="whiteSpace=wrap;html=1;" parent="ZKPLTbpdLzS0un_BZ3tC-151" vertex="1">
                    <mxGeometry x="780" y="1550" width="120" height="60" as="geometry"/>
                </mxCell>
                <mxCell id="ZKPLTbpdLzS0un_BZ3tC-197" style="edgeStyle=none;html=1;exitX=0.5;exitY=1;exitDx=0;exitDy=0;" parent="ZKPLTbpdLzS0un_BZ3tC-151" source="ZKPLTbpdLzS0un_BZ3tC-188" target="ZKPLTbpdLzS0un_BZ3tC-194" edge="1">
                    <mxGeometry relative="1" as="geometry"/>
                </mxCell>
                <mxCell id="ZKPLTbpdLzS0un_BZ3tC-188" value="&lt;div style=&quot;color: rgb(212, 212, 212); background-color: rgb(30, 30, 30); font-family: Consolas, &amp;quot;Courier New&amp;quot;, monospace; font-size: 14px; line-height: 19px;&quot;&gt;&lt;span style=&quot;color: #569cd6;&quot;&gt;self&lt;/span&gt;:&lt;span style=&quot;color: #dcdcaa;&quot;&gt;OnMutualSuccess&lt;/span&gt;&lt;/div&gt;" style="whiteSpace=wrap;html=1;" parent="ZKPLTbpdLzS0un_BZ3tC-151" vertex="1">
                    <mxGeometry x="670" y="1770" width="120" height="60" as="geometry"/>
                </mxCell>
                <mxCell id="ZKPLTbpdLzS0un_BZ3tC-204" style="edgeStyle=none;html=1;exitX=0.5;exitY=1;exitDx=0;exitDy=0;" parent="ZKPLTbpdLzS0un_BZ3tC-151" source="ZKPLTbpdLzS0un_BZ3tC-189" target="ZKPLTbpdLzS0un_BZ3tC-202" edge="1">
                    <mxGeometry relative="1" as="geometry"/>
                </mxCell>
                <mxCell id="ZKPLTbpdLzS0un_BZ3tC-189" value="&lt;div style=&quot;color: rgb(212, 212, 212); background-color: rgb(30, 30, 30); font-family: Consolas, &amp;quot;Courier New&amp;quot;, monospace; font-size: 14px; line-height: 19px;&quot;&gt;&amp;nbsp;&lt;span style=&quot;color: #569cd6;&quot;&gt;self&lt;/span&gt;:&lt;span style=&quot;color: #dcdcaa;&quot;&gt;OnMutualFail&lt;/span&gt;&lt;/div&gt;" style="whiteSpace=wrap;html=1;" parent="ZKPLTbpdLzS0un_BZ3tC-151" vertex="1">
                    <mxGeometry x="880" y="1770" width="120" height="60" as="geometry"/>
                </mxCell>
                <mxCell id="ZKPLTbpdLzS0un_BZ3tC-191" style="edgeStyle=none;html=1;" parent="ZKPLTbpdLzS0un_BZ3tC-151" source="ZKPLTbpdLzS0un_BZ3tC-190" target="ZKPLTbpdLzS0un_BZ3tC-188" edge="1">
                    <mxGeometry relative="1" as="geometry"/>
                </mxCell>
                <mxCell id="ZKPLTbpdLzS0un_BZ3tC-192" style="edgeStyle=none;html=1;exitX=1;exitY=0.5;exitDx=0;exitDy=0;entryX=0.5;entryY=0;entryDx=0;entryDy=0;" parent="ZKPLTbpdLzS0un_BZ3tC-151" source="ZKPLTbpdLzS0un_BZ3tC-190" target="ZKPLTbpdLzS0un_BZ3tC-189" edge="1">
                    <mxGeometry relative="1" as="geometry"/>
                </mxCell>
                <mxCell id="ZKPLTbpdLzS0un_BZ3tC-190" value="" style="rhombus;whiteSpace=wrap;html=1;" parent="ZKPLTbpdLzS0un_BZ3tC-151" vertex="1">
                    <mxGeometry x="800" y="1660" width="80" height="80" as="geometry"/>
                </mxCell>
                <mxCell id="ZKPLTbpdLzS0un_BZ3tC-194" value="&lt;div style=&quot;color: rgb(212, 212, 212); background-color: rgb(30, 30, 30); font-family: Consolas, &amp;quot;Courier New&amp;quot;, monospace; font-size: 14px; line-height: 19px;&quot;&gt;&lt;span style=&quot;color: #569cd6;&quot;&gt;self&lt;/span&gt;:&lt;span style=&quot;color: #dcdcaa;&quot;&gt;GetActor&lt;/span&gt;():&lt;span style=&quot;color: #dcdcaa;&quot;&gt;OnMutualSuccess&lt;/span&gt;&lt;/div&gt;" style="whiteSpace=wrap;html=1;" parent="ZKPLTbpdLzS0un_BZ3tC-151" vertex="1">
                    <mxGeometry x="660" y="1880" width="120" height="60" as="geometry"/>
                </mxCell>
                <mxCell id="ZKPLTbpdLzS0un_BZ3tC-210" style="edgeStyle=none;html=1;exitX=0.5;exitY=1;exitDx=0;exitDy=0;entryX=0.5;entryY=0;entryDx=0;entryDy=0;" parent="ZKPLTbpdLzS0un_BZ3tC-151" source="ZKPLTbpdLzS0un_BZ3tC-201" target="ZKPLTbpdLzS0un_BZ3tC-207" edge="1">
                    <mxGeometry relative="1" as="geometry"/>
                </mxCell>
                <mxCell id="ZKPLTbpdLzS0un_BZ3tC-201" value="&lt;div style=&quot;color: rgb(212, 212, 212); background-color: rgb(30, 30, 30); font-family: Consolas, &amp;quot;Courier New&amp;quot;, monospace; font-size: 14px; line-height: 19px;&quot;&gt;&lt;span style=&quot;color: #569cd6;&quot;&gt;self&lt;/span&gt;:&lt;span style=&quot;color: #dcdcaa;&quot;&gt;SetInteractEnd&lt;/span&gt;()&lt;/div&gt;" style="whiteSpace=wrap;html=1;" parent="ZKPLTbpdLzS0un_BZ3tC-151" vertex="1">
                    <mxGeometry x="880" y="2000" width="120" height="70" as="geometry"/>
                </mxCell>
                <mxCell id="ZKPLTbpdLzS0un_BZ3tC-205" style="edgeStyle=none;html=1;exitX=0.5;exitY=1;exitDx=0;exitDy=0;" parent="ZKPLTbpdLzS0un_BZ3tC-151" source="ZKPLTbpdLzS0un_BZ3tC-202" target="ZKPLTbpdLzS0un_BZ3tC-201" edge="1">
                    <mxGeometry relative="1" as="geometry"/>
                </mxCell>
                <mxCell id="ZKPLTbpdLzS0un_BZ3tC-202" value="&lt;div style=&quot;color: rgb(212, 212, 212); background-color: rgb(30, 30, 30); font-family: Consolas, &amp;quot;Courier New&amp;quot;, monospace; font-size: 14px; line-height: 19px;&quot;&gt;&lt;span style=&quot;color: #569cd6;&quot;&gt;self&lt;/span&gt;:&lt;span style=&quot;color: #dcdcaa;&quot;&gt;GetActor&lt;/span&gt;():&lt;span style=&quot;color: #dcdcaa;&quot;&gt;OnMutualFail&lt;/span&gt;&lt;/div&gt;" style="whiteSpace=wrap;html=1;" parent="ZKPLTbpdLzS0un_BZ3tC-151" vertex="1">
                    <mxGeometry x="880" y="1880" width="120" height="60" as="geometry"/>
                </mxCell>
                <mxCell id="ZKPLTbpdLzS0un_BZ3tC-195" value="具体元素的表现" style="text;html=1;align=center;verticalAlign=middle;resizable=0;points=[];autosize=1;strokeColor=none;fillColor=none;" parent="ZKPLTbpdLzS0un_BZ3tC-151" vertex="1">
                    <mxGeometry x="620" y="1840" width="110" height="30" as="geometry"/>
                </mxCell>
                <mxCell id="ZKPLTbpdLzS0un_BZ3tC-200" value="请求元素交互" style="text;html=1;align=center;verticalAlign=middle;resizable=0;points=[];autosize=1;strokeColor=none;fillColor=none;" parent="ZKPLTbpdLzS0un_BZ3tC-151" vertex="1">
                    <mxGeometry x="650" y="1980" width="100" height="30" as="geometry"/>
                </mxCell>
                <mxCell id="ZKPLTbpdLzS0un_BZ3tC-196" value="&lt;div style=&quot;color: rgb(212, 212, 212); background-color: rgb(30, 30, 30); font-family: Consolas, &amp;quot;Courier New&amp;quot;, monospace; font-size: 14px; line-height: 19px;&quot;&gt;&lt;span style=&quot;color: #dcdcaa;&quot;&gt;RequestElementInteraction&lt;/span&gt;&lt;/div&gt;" style="whiteSpace=wrap;html=1;" parent="ZKPLTbpdLzS0un_BZ3tC-151" vertex="1">
                    <mxGeometry x="650" y="2010" width="120" height="60" as="geometry"/>
                </mxCell>
                <mxCell id="ZKPLTbpdLzS0un_BZ3tC-203" style="edgeStyle=none;html=1;exitX=0.5;exitY=1;exitDx=0;exitDy=0;" parent="ZKPLTbpdLzS0un_BZ3tC-151" source="ZKPLTbpdLzS0un_BZ3tC-194" target="ZKPLTbpdLzS0un_BZ3tC-196" edge="1">
                    <mxGeometry relative="1" as="geometry">
                        <mxPoint x="750" y="1990" as="targetPoint"/>
                    </mxGeometry>
                </mxCell>
                <mxCell id="ZKPLTbpdLzS0un_BZ3tC-211" style="edgeStyle=none;html=1;exitX=0.5;exitY=1;exitDx=0;exitDy=0;entryX=0.5;entryY=0;entryDx=0;entryDy=0;" parent="ZKPLTbpdLzS0un_BZ3tC-151" source="ZKPLTbpdLzS0un_BZ3tC-207" target="ZKPLTbpdLzS0un_BZ3tC-208" edge="1">
                    <mxGeometry relative="1" as="geometry"/>
                </mxCell>
                <mxCell id="ZKPLTbpdLzS0un_BZ3tC-207" value="&lt;div style=&quot;color: rgb(212, 212, 212); background-color: rgb(30, 30, 30); font-family: Consolas, &amp;quot;Courier New&amp;quot;, monospace; font-size: 14px; line-height: 19px;&quot;&gt;&lt;span style=&quot;color: #569cd6;&quot;&gt;self&lt;/span&gt;:&lt;span style=&quot;color: #dcdcaa;&quot;&gt;ExitInteraction&lt;/span&gt;()&lt;/div&gt;" style="whiteSpace=wrap;html=1;" parent="ZKPLTbpdLzS0un_BZ3tC-151" vertex="1">
                    <mxGeometry x="890" y="2140" width="120" height="60" as="geometry"/>
                </mxCell>
                <mxCell id="ZKPLTbpdLzS0un_BZ3tC-208" value="&lt;div style=&quot;color: rgb(212, 212, 212); background-color: rgb(30, 30, 30); font-family: Consolas, &amp;quot;Courier New&amp;quot;, monospace; font-size: 14px; line-height: 19px;&quot;&gt;&lt;span style=&quot;color: #569cd6;&quot;&gt;self&lt;/span&gt;:&lt;span style=&quot;color: #dcdcaa;&quot;&gt;InteractEndLateAction&lt;/span&gt;&lt;/div&gt;" style="whiteSpace=wrap;html=1;" parent="ZKPLTbpdLzS0un_BZ3tC-151" vertex="1">
                    <mxGeometry x="880" y="2250" width="120" height="60" as="geometry"/>
                </mxCell>
                <mxCell id="ZKPLTbpdLzS0un_BZ3tC-246" style="edgeStyle=none;html=1;exitX=1;exitY=0.5;exitDx=0;exitDy=0;" parent="ZKPLTbpdLzS0un_BZ3tC-151" source="ZKPLTbpdLzS0un_BZ3tC-244" target="ZKPLTbpdLzS0un_BZ3tC-245" edge="1">
                    <mxGeometry relative="1" as="geometry"/>
                </mxCell>
                <mxCell id="ZKPLTbpdLzS0un_BZ3tC-244" value="服务器返回" style="shape=step;perimeter=stepPerimeter;whiteSpace=wrap;html=1;fixedSize=1;" parent="ZKPLTbpdLzS0un_BZ3tC-151" vertex="1">
                    <mxGeometry x="120" y="2130" width="120" height="80" as="geometry"/>
                </mxCell>
                <mxCell id="ZKPLTbpdLzS0un_BZ3tC-248" style="edgeStyle=none;html=1;exitX=1;exitY=0.5;exitDx=0;exitDy=0;" parent="ZKPLTbpdLzS0un_BZ3tC-151" source="ZKPLTbpdLzS0un_BZ3tC-245" target="ZKPLTbpdLzS0un_BZ3tC-247" edge="1">
                    <mxGeometry relative="1" as="geometry"/>
                </mxCell>
                <mxCell id="ZKPLTbpdLzS0un_BZ3tC-245" value="&lt;div style=&quot;color: rgb(212, 212, 212); background-color: rgb(30, 30, 30); font-family: Consolas, &amp;quot;Courier New&amp;quot;, monospace; font-size: 14px; line-height: 19px;&quot;&gt;&lt;span style=&quot;color: #4ec9b0;&quot;&gt;LevelElement&lt;/span&gt;:&lt;span style=&quot;color: #dcdcaa;&quot;&gt;InfoDataChange&lt;/span&gt;&lt;/div&gt;" style="whiteSpace=wrap;html=1;" parent="ZKPLTbpdLzS0un_BZ3tC-151" vertex="1">
                    <mxGeometry x="350" y="2140" width="120" height="60" as="geometry"/>
                </mxCell>
                <mxCell id="ZKPLTbpdLzS0un_BZ3tC-249" style="edgeStyle=none;html=1;exitX=1;exitY=0.5;exitDx=0;exitDy=0;entryX=-0.019;entryY=0.667;entryDx=0;entryDy=0;entryPerimeter=0;" parent="ZKPLTbpdLzS0un_BZ3tC-151" source="ZKPLTbpdLzS0un_BZ3tC-247" target="ZKPLTbpdLzS0un_BZ3tC-201" edge="1">
                    <mxGeometry relative="1" as="geometry"/>
                </mxCell>
                <mxCell id="ZKPLTbpdLzS0un_BZ3tC-247" value="&lt;div style=&quot;color: rgb(212, 212, 212); background-color: rgb(30, 30, 30); font-family: Consolas, &amp;quot;Courier New&amp;quot;, monospace; font-size: 14px; line-height: 19px;&quot;&gt;&lt;span style=&quot;color: #4ec9b0;&quot;&gt;baseCopyMapComponent&lt;/span&gt;:&lt;span style=&quot;color: #dcdcaa;&quot;&gt;OnInfoDataChange&lt;/span&gt;&lt;/div&gt;" style="whiteSpace=wrap;html=1;" parent="ZKPLTbpdLzS0un_BZ3tC-151" vertex="1">
                    <mxGeometry x="511" y="2210" width="109" height="60" as="geometry"/>
                </mxCell>
                <mxCell id="ZKPLTbpdLzS0un_BZ3tC-250" value="执行完也会调用&amp;nbsp;&lt;span style=&quot;color: rgb(220, 220, 170); font-family: Consolas, &amp;quot;Courier New&amp;quot;, monospace; font-size: 14px; background-color: rgb(30, 30, 30);&quot;&gt;SetInteractEnd&lt;/span&gt;" style="whiteSpace=wrap;html=1;" parent="ZKPLTbpdLzS0un_BZ3tC-151" vertex="1">
                    <mxGeometry x="190" y="1643" width="120" height="60" as="geometry"/>
                </mxCell>
                <mxCell id="ZKPLTbpdLzS0un_BZ3tC-209" value="有些元素要交互结束做一些逻辑" style="text;html=1;align=center;verticalAlign=middle;resizable=0;points=[];autosize=1;strokeColor=none;fillColor=none;" parent="ZKPLTbpdLzS0un_BZ3tC-151" vertex="1">
                    <mxGeometry x="769.28" y="2290" width="190" height="30" as="geometry"/>
                </mxCell>
                <mxCell id="ZKPLTbpdLzS0un_BZ3tC-117" style="edgeStyle=none;html=1;exitX=1;exitY=0.5;exitDx=0;exitDy=0;" parent="1" source="ZKPLTbpdLzS0un_BZ3tC-115" target="ZKPLTbpdLzS0un_BZ3tC-116" edge="1">
                    <mxGeometry relative="1" as="geometry"/>
                </mxCell>
                <mxCell id="ZKPLTbpdLzS0un_BZ3tC-118" value="&lt;div style=&quot;color: rgb(212, 212, 212); background-color: rgb(30, 30, 30); font-family: Consolas, &amp;quot;Courier New&amp;quot;, monospace; font-size: 14px; line-height: 19px;&quot;&gt;&lt;span style=&quot;color: #9cdcfe;&quot;&gt;PureMVCEvents&lt;/span&gt;.&lt;span style=&quot;color: #4ec9b0;&quot;&gt;RequestPreInteraction&lt;/span&gt;&lt;/div&gt;" style="edgeLabel;html=1;align=center;verticalAlign=middle;resizable=0;points=[];" parent="ZKPLTbpdLzS0un_BZ3tC-117" vertex="1" connectable="0">
                    <mxGeometry x="-0.1463" y="2" relative="1" as="geometry">
                        <mxPoint x="15" y="8" as="offset"/>
                    </mxGeometry>
                </mxCell>
                <mxCell id="ZKPLTbpdLzS0un_BZ3tC-148" style="edgeStyle=none;html=1;exitX=0;exitY=0.5;exitDx=0;exitDy=0;" parent="1" source="ZKPLTbpdLzS0un_BZ3tC-146" target="ZKPLTbpdLzS0un_BZ3tC-147" edge="1">
                    <mxGeometry relative="1" as="geometry"/>
                </mxCell>
                <mxCell id="ZKPLTbpdLzS0un_BZ3tC-149" value="&lt;div style=&quot;color: rgb(212, 212, 212); background-color: rgb(30, 30, 30); font-family: Consolas, &amp;quot;Courier New&amp;quot;, monospace; font-size: 14px; line-height: 19px;&quot;&gt;&lt;span style=&quot;color: #9cdcfe;&quot;&gt;PureMVCEvents&lt;/span&gt;.&lt;span style=&quot;color: #4ec9b0;&quot;&gt;PreInteractionCompleted&lt;/span&gt;&lt;/div&gt;" style="edgeLabel;html=1;align=center;verticalAlign=middle;resizable=0;points=[];" parent="ZKPLTbpdLzS0un_BZ3tC-148" vertex="1" connectable="0">
                    <mxGeometry x="0.0992" y="-3" relative="1" as="geometry">
                        <mxPoint as="offset"/>
                    </mxGeometry>
                </mxCell>
                <mxCell id="ZKPLTbpdLzS0un_BZ3tC-155" style="edgeStyle=none;html=1;exitX=1;exitY=0.5;exitDx=0;exitDy=0;entryX=0;entryY=0.5;entryDx=0;entryDy=0;" parent="1" source="ZKPLTbpdLzS0un_BZ3tC-153" target="ZKPLTbpdLzS0un_BZ3tC-158" edge="1">
                    <mxGeometry relative="1" as="geometry">
                        <mxPoint x="1640" y="2220" as="targetPoint"/>
                    </mxGeometry>
                </mxCell>
                <mxCell id="ZKPLTbpdLzS0un_BZ3tC-156" value="&lt;div style=&quot;color: rgb(212, 212, 212); background-color: rgb(30, 30, 30); font-family: Consolas, &amp;quot;Courier New&amp;quot;, monospace; font-size: 14px; line-height: 19px;&quot;&gt;&lt;span style=&quot;color: #9cdcfe;&quot;&gt;PureMVCEvents&lt;/span&gt;.&lt;span style=&quot;color: #4ec9b0;&quot;&gt;RequestStartInteraction&lt;/span&gt;&lt;/div&gt;" style="edgeLabel;html=1;align=center;verticalAlign=middle;resizable=0;points=[];" parent="ZKPLTbpdLzS0un_BZ3tC-155" vertex="1" connectable="0">
                    <mxGeometry x="-0.2267" y="-1" relative="1" as="geometry">
                        <mxPoint as="offset"/>
                    </mxGeometry>
                </mxCell>
                <mxCell id="ZKPLTbpdLzS0un_BZ3tC-159" style="edgeStyle=none;html=1;exitX=0.5;exitY=1;exitDx=0;exitDy=0;entryX=1.026;entryY=0.41;entryDx=0;entryDy=0;entryPerimeter=0;" parent="1" source="ZKPLTbpdLzS0un_BZ3tC-158" target="ZKPLTbpdLzS0un_BZ3tC-161" edge="1">
                    <mxGeometry relative="1" as="geometry">
                        <mxPoint x="1899.2857142857142" y="2370" as="targetPoint"/>
                    </mxGeometry>
                </mxCell>
                <mxCell id="ZKPLTbpdLzS0un_BZ3tC-160" value="&lt;div style=&quot;color: rgb(212, 212, 212); background-color: rgb(30, 30, 30); font-family: Consolas, &amp;quot;Courier New&amp;quot;, monospace; font-size: 14px; line-height: 19px;&quot;&gt;&lt;span style=&quot;color: #9cdcfe;&quot;&gt;PureMVCEvents&lt;/span&gt;.&lt;span style=&quot;color: #4ec9b0;&quot;&gt;StartInteraction&lt;/span&gt;&lt;/div&gt;" style="edgeLabel;html=1;align=center;verticalAlign=middle;resizable=0;points=[];" parent="ZKPLTbpdLzS0un_BZ3tC-159" vertex="1" connectable="0">
                    <mxGeometry x="0.1501" y="-1" relative="1" as="geometry">
                        <mxPoint x="1" as="offset"/>
                    </mxGeometry>
                </mxCell>
                <mxCell id="ZKPLTbpdLzS0un_BZ3tC-187" value="很多类型可以选择 这块可以详细看代码" style="text;html=1;align=center;verticalAlign=middle;resizable=0;points=[];autosize=1;strokeColor=none;fillColor=none;" parent="1" vertex="1">
                    <mxGeometry x="1015" y="2725" width="230" height="30" as="geometry"/>
                </mxCell>
                <mxCell id="ZKPLTbpdLzS0un_BZ3tC-206" value="服务器返回了" style="text;html=1;align=center;verticalAlign=middle;resizable=0;points=[];autosize=1;strokeColor=none;fillColor=none;" parent="1" vertex="1">
                    <mxGeometry x="950" y="3355" width="100" height="30" as="geometry"/>
                </mxCell>
                <mxCell id="ZKPLTbpdLzS0un_BZ3tC-212" style="edgeStyle=none;html=1;exitX=1;exitY=0.5;exitDx=0;exitDy=0;entryX=0;entryY=0.5;entryDx=0;entryDy=0;" parent="1" source="ZKPLTbpdLzS0un_BZ3tC-201" target="ZKPLTbpdLzS0un_BZ3tC-214" edge="1">
                    <mxGeometry relative="1" as="geometry">
                        <mxPoint x="1750" y="3315.285714285714" as="targetPoint"/>
                    </mxGeometry>
                </mxCell>
                <mxCell id="ZKPLTbpdLzS0un_BZ3tC-213" value="&lt;div style=&quot;color: rgb(212, 212, 212); background-color: rgb(30, 30, 30); font-family: Consolas, &amp;quot;Courier New&amp;quot;, monospace; font-size: 14px; line-height: 19px;&quot;&gt;&lt;span style=&quot;color: #9cdcfe;&quot;&gt;PureMVCEvents&lt;/span&gt;.&lt;span style=&quot;color: #4ec9b0;&quot;&gt;HeroExitInteracting&lt;/span&gt;&lt;/div&gt;" style="edgeLabel;html=1;align=center;verticalAlign=middle;resizable=0;points=[];" parent="ZKPLTbpdLzS0un_BZ3tC-212" vertex="1" connectable="0">
                    <mxGeometry x="-0.1326" y="-1" relative="1" as="geometry">
                        <mxPoint as="offset"/>
                    </mxGeometry>
                </mxCell>
                <mxCell id="ZKPLTbpdLzS0un_BZ3tC-216" style="edgeStyle=none;html=1;exitX=1;exitY=0.5;exitDx=0;exitDy=0;entryX=0.5;entryY=1;entryDx=0;entryDy=0;" parent="1" source="ZKPLTbpdLzS0un_BZ3tC-107" target="ZKPLTbpdLzS0un_BZ3tC-115" edge="1">
                    <mxGeometry relative="1" as="geometry"/>
                </mxCell>
                <mxCell id="ZKPLTbpdLzS0un_BZ3tC-220" style="edgeStyle=none;html=1;exitX=0.5;exitY=1;exitDx=0;exitDy=0;" parent="1" source="ZKPLTbpdLzS0un_BZ3tC-218" target="ZKPLTbpdLzS0un_BZ3tC-219" edge="1">
                    <mxGeometry relative="1" as="geometry"/>
                </mxCell>
                <mxCell id="ZKPLTbpdLzS0un_BZ3tC-218" value="&lt;div style=&quot;color: rgb(212, 212, 212); background-color: rgb(30, 30, 30); font-family: Consolas, &amp;quot;Courier New&amp;quot;, monospace; font-size: 14px; line-height: 19px;&quot;&gt;&lt;span style=&quot;color: #4ec9b0;&quot;&gt;LevelElement&lt;/span&gt;:&lt;span style=&quot;color: #dcdcaa;&quot;&gt;EndOverLap&lt;/span&gt;&lt;/div&gt;" style="whiteSpace=wrap;html=1;" parent="1" vertex="1">
                    <mxGeometry x="1380" y="330" width="120" height="60" as="geometry"/>
                </mxCell>
                <mxCell id="ZKPLTbpdLzS0un_BZ3tC-241" style="edgeStyle=none;html=1;exitX=0.5;exitY=1;exitDx=0;exitDy=0;entryX=0.537;entryY=0.05;entryDx=0;entryDy=0;entryPerimeter=0;" parent="1" source="ZKPLTbpdLzS0un_BZ3tC-219" target="ZKPLTbpdLzS0un_BZ3tC-235" edge="1">
                    <mxGeometry relative="1" as="geometry"/>
                </mxCell>
                <mxCell id="ZKPLTbpdLzS0un_BZ3tC-243" style="edgeStyle=none;html=1;exitX=0.5;exitY=1;exitDx=0;exitDy=0;entryX=0.5;entryY=0;entryDx=0;entryDy=0;" parent="1" source="ZKPLTbpdLzS0un_BZ3tC-219" target="ZKPLTbpdLzS0un_BZ3tC-242" edge="1">
                    <mxGeometry relative="1" as="geometry"/>
                </mxCell>
                <mxCell id="ZKPLTbpdLzS0un_BZ3tC-219" value="&lt;div style=&quot;color: rgb(212, 212, 212); background-color: rgb(30, 30, 30); font-family: Consolas, &amp;quot;Courier New&amp;quot;, monospace; font-size: 14px; line-height: 19px;&quot;&gt;&lt;span style=&quot;color: #569cd6;&quot;&gt;self&lt;/span&gt;:&lt;span style=&quot;color: #dcdcaa;&quot;&gt;OnLeaveInteractiveArea&lt;/span&gt;&lt;/div&gt;" style="whiteSpace=wrap;html=1;" parent="1" vertex="1">
                    <mxGeometry x="1370" y="440" width="120" height="60" as="geometry"/>
                </mxCell>
                <mxCell id="ZKPLTbpdLzS0un_BZ3tC-231" style="edgeStyle=none;html=1;exitX=0.5;exitY=1;exitDx=0;exitDy=0;entryX=0.5;entryY=0;entryDx=0;entryDy=0;" parent="1" source="ZKPLTbpdLzS0un_BZ3tC-235" target="ZKPLTbpdLzS0un_BZ3tC-237" edge="1">
                    <mxGeometry relative="1" as="geometry"/>
                </mxCell>
                <mxCell id="ZKPLTbpdLzS0un_BZ3tC-232" value="Y" style="edgeLabel;html=1;align=center;verticalAlign=middle;resizable=0;points=[];" parent="ZKPLTbpdLzS0un_BZ3tC-231" vertex="1" connectable="0">
                    <mxGeometry x="-0.4562" y="1" relative="1" as="geometry">
                        <mxPoint as="offset"/>
                    </mxGeometry>
                </mxCell>
                <mxCell id="ZKPLTbpdLzS0un_BZ3tC-233" style="edgeStyle=none;html=1;exitX=1;exitY=0.5;exitDx=0;exitDy=0;entryX=0.5;entryY=0;entryDx=0;entryDy=0;" parent="1" source="ZKPLTbpdLzS0un_BZ3tC-235" target="ZKPLTbpdLzS0un_BZ3tC-238" edge="1">
                    <mxGeometry relative="1" as="geometry"/>
                </mxCell>
                <mxCell id="ZKPLTbpdLzS0un_BZ3tC-234" value="N" style="edgeLabel;html=1;align=center;verticalAlign=middle;resizable=0;points=[];" parent="ZKPLTbpdLzS0un_BZ3tC-233" vertex="1" connectable="0">
                    <mxGeometry x="0.1534" y="2" relative="1" as="geometry">
                        <mxPoint as="offset"/>
                    </mxGeometry>
                </mxCell>
                <mxCell id="ZKPLTbpdLzS0un_BZ3tC-235" value="&lt;div style=&quot;color: rgb(212, 212, 212); background-color: rgb(30, 30, 30); font-family: Consolas, &amp;quot;Courier New&amp;quot;, monospace; font-size: 14px; line-height: 19px;&quot;&gt;&lt;span style=&quot;color: #569cd6;&quot;&gt;self&lt;/span&gt;:&lt;span style=&quot;color: #dcdcaa;&quot;&gt;IsLocalEventUnit&lt;/span&gt;()&lt;/div&gt;" style="rhombus;whiteSpace=wrap;html=1;" parent="1" vertex="1">
                    <mxGeometry x="1320.28" y="565" width="80" height="80" as="geometry"/>
                </mxCell>
                <mxCell id="ZKPLTbpdLzS0un_BZ3tC-236" style="edgeStyle=none;html=1;exitX=0.5;exitY=1;exitDx=0;exitDy=0;entryX=0.5;entryY=0;entryDx=0;entryDy=0;" parent="1" source="ZKPLTbpdLzS0un_BZ3tC-237" target="ZKPLTbpdLzS0un_BZ3tC-239" edge="1">
                    <mxGeometry relative="1" as="geometry"/>
                </mxCell>
                <mxCell id="ZKPLTbpdLzS0un_BZ3tC-237" value="&lt;div style=&quot;color: rgb(212, 212, 212); background-color: rgb(30, 30, 30); font-family: Consolas, &amp;quot;Courier New&amp;quot;, monospace; font-size: 14px; line-height: 19px;&quot;&gt;&lt;span style=&quot;color: #569cd6;&quot;&gt;self&lt;/span&gt;:&lt;span style=&quot;color: rgb(220, 220, 170);&quot;&gt;OnCharacterEndOverlap&lt;/span&gt;()&lt;br&gt;&lt;/div&gt;" style="whiteSpace=wrap;html=1;" parent="1" vertex="1">
                    <mxGeometry x="1300.28" y="725" width="120" height="60" as="geometry"/>
                </mxCell>
                <mxCell id="ZKPLTbpdLzS0un_BZ3tC-238" value="&lt;div style=&quot;color: rgb(212, 212, 212); background-color: rgb(30, 30, 30); font-family: Consolas, &amp;quot;Courier New&amp;quot;, monospace; font-size: 14px; line-height: 19px;&quot;&gt;&lt;span style=&quot;color: #4ec9b0;&quot;&gt;actor&lt;/span&gt;:&lt;span style=&quot;color: rgb(220, 220, 170);&quot;&gt;OnLeaveInteractiveArea&lt;/span&gt;&lt;/div&gt;" style="whiteSpace=wrap;html=1;" parent="1" vertex="1">
                    <mxGeometry x="1449.28" y="655" width="120" height="60" as="geometry"/>
                </mxCell>
                <mxCell id="ZKPLTbpdLzS0un_BZ3tC-239" value="&lt;div style=&quot;color: rgb(212, 212, 212); background-color: rgb(30, 30, 30); font-family: Consolas, &amp;quot;Courier New&amp;quot;, monospace; font-size: 14px; line-height: 19px;&quot;&gt;&lt;span style=&quot;color: #ce9178;&quot;&gt;EnterTriggerArea&amp;nbsp;&lt;/span&gt;&lt;/div&gt;&lt;div style=&quot;color: rgb(212, 212, 212); background-color: rgb(30, 30, 30); font-family: Consolas, &amp;quot;Courier New&amp;quot;, monospace; font-size: 14px; line-height: 19px;&quot;&gt;&lt;span style=&quot;color: #ce9178;&quot;&gt;进入协程&lt;/span&gt;&lt;/div&gt;" style="whiteSpace=wrap;html=1;" parent="1" vertex="1">
                    <mxGeometry x="1290.72" y="835" width="120" height="60" as="geometry"/>
                </mxCell>
                <mxCell id="ZKPLTbpdLzS0un_BZ3tC-240" value="&lt;div style=&quot;color: rgb(212, 212, 212); background-color: rgb(30, 30, 30); font-family: Consolas, &amp;quot;Courier New&amp;quot;, monospace; font-size: 14px; line-height: 19px;&quot;&gt;&lt;span style=&quot;color: #4ec9b0;&quot;&gt;baseCopyMapComponent&lt;/span&gt;&lt;/div&gt;" style="text;html=1;align=center;verticalAlign=middle;resizable=0;points=[];autosize=1;strokeColor=none;fillColor=none;" parent="1" vertex="1">
                    <mxGeometry x="1389.28" y="645" width="180" height="30" as="geometry"/>
                </mxCell>
                <mxCell id="ZKPLTbpdLzS0un_BZ3tC-242" value="&#10;&lt;div style=&quot;color: rgb(212, 212, 212); background-color: rgb(30, 30, 30); font-family: Consolas, &amp;quot;Courier New&amp;quot;, monospace; font-weight: normal; font-size: 14px; line-height: 19px;&quot;&gt;&lt;div&gt;&lt;span style=&quot;color: #569cd6;&quot;&gt;self&lt;/span&gt;&lt;span style=&quot;color: #d4d4d4;&quot;&gt;:&lt;/span&gt;&lt;span style=&quot;color: #dcdcaa;&quot;&gt;HideInteractionAreaDisplay&lt;/span&gt;&lt;/div&gt;&lt;/div&gt;&#10;&#10;" style="whiteSpace=wrap;html=1;" parent="1" vertex="1">
                    <mxGeometry x="1590" y="565" width="120" height="60" as="geometry"/>
                </mxCell>
            </root>
        </mxGraphModel>
    </diagram>
</mxfile>